<?xml version="1.0" encoding="UTF-8"?> <svg xmlns="http://www.w3.org/2000/svg" version="1.2" viewBox="0 0 271 30" width="271" height="30"><title>damac-logo-svg</title><style> .s0 { fill: #010101 } </style><path id="Layer" fill-rule="evenodd" class="s0" d="m270.6 0.3l-4.1 8.8h-7.1l2.1-4.6h-9.3c-8.3 0-14.4 3.8-17.2 9.9-1.7 3.4-1.9 6.8 0.2 8.2q2.9 2 11.6 2h12.1l-2.2 4.6h-21.4q-9 0-12.9-1.5-0.5-0.1-0.9-0.4-0.5-0.2-0.9-0.4-0.4-0.3-0.8-0.6-0.4-0.3-0.8-0.7-0.3-0.3-0.6-0.7-0.3-0.4-0.5-0.8-0.2-0.4-0.4-0.8-0.2-0.5-0.3-0.9-0.2-1-0.3-2.1 0-1 0.2-2 0.1-1 0.4-2 0.4-0.9 0.8-1.8 0.9-1.8 2-3.3 1.1-1.6 2.4-3 1.4-1.3 3-2.4 1.5-1.1 3.2-2 7.4-3.8 17.9-3.8h23.7l-0.1 0.3zm-62.8-0.3l7.9 29.2h-8.1l-1.9-7.6h-23l-9 7.6h-31.9l8.5-18q0.5-1.1 1.7-3.1-0.4 0.4-0.8 0.8-0.5 0.3-1 0.7-0.4 0.4-0.9 0.8-0.4 0.3-0.9 0.7l-21.5 15h-1.2l-7.5-15.1q-0.2-0.3-0.4-0.7-0.1-0.3-0.2-0.7-0.1-0.4-0.2-0.8-0.1-0.4-0.1-0.7-0.1 0.4-0.3 0.7-0.1 0.4-0.3 0.8-0.1 0.4-0.3 0.8-0.2 0.4-0.3 0.8l-8.6 18h-23.6l-1.7-7.6h-22.2l-9 7.6h-8.9l35.3-29.2h15.9l7.7 28 13.2-28h14.6l5.2 9.2-4.3 9.5h0.4l9-6.6 17.5-12.1h14.5l-13.2 28 33.8-28zm-126.6 17.6l-2.5-11.9-14 11.9zm123.5-0.1l-3-12.4-14.4 12.4zm-161 6.6q-1.3 0.8-2.6 1.5-1.3 0.7-2.6 1.2-1.4 0.5-2.8 0.9-1.8 0.4-3.5 0.7-1.8 0.3-3.6 0.5-1.8 0.2-3.6 0.3-1.8 0.1-3.6 0h-21.5l8-16.8h7.1l-5.6 11.8h7.6c5.8 0 9.1-0.4 12.2-1.7 3.5-1.4 5-4.6 6.6-8.2 2.9-6 0.5-9.7-7.8-9.7h-16.4l2.2-4.6h23.7q10.5 0 14.3 3.8 3.7 3.8 0.5 10.7-0.5 1.1-1.2 2.2-0.7 1.1-1.5 2.1-0.8 0.9-1.7 1.9-0.9 0.9-1.9 1.7-1.1 0.9-2.3 1.7z"></path></svg> 