<?xml version="1.0" encoding="UTF-8"?> <svg xmlns="http://www.w3.org/2000/svg" width="837" height="274" viewBox="0 0 837 274" fill="none"><g clip-path="url(#clip0_325_2)"><path fill-rule="evenodd" clip-rule="evenodd" d="M462.5 123.4C462.5 154.1 433.5 167.7 400 167.7H355.8V8.19995H389.6C419.3 8.19995 442.7 19.1999 442.7 44.7999C442.7 61.2999 432.6 71.8 417.8 77.2C444.4 82.4 462.5 99 462.5 123.4ZM397.9 158.7C425.5 158.7 437.8 143.3 437.8 121C437.8 108.3 433.8 97.2 425.1 90.1C416.9 82.5 406.5 79 401 77.7C422.7 72.9 420.9 46.6 420.9 43.9C420.9 27.8 413.5 17.1 391.5 17.1H379.2V158.7H397.9Z" fill="#AD9C62"></path><path d="M11.1 162.3C22 167.9 35.8 170.4 47.7 170.4C68.3 170.4 104.6 163 104.6 126.9C104.6 101.5 86.3 87.3 56.2 66.8C42.2 56.9 23.2 46.9 23.2 30.6C23.2 17 35.7 8.9 53.1 8.9C70.5 8.9 84.2 17.2 87.4 19.3L78.8 4.3C73 1.1 60.2 0 53.4 0C30.3 0 3.4 9.7 3.4 37.2C3.4 58.9 20.5 71.1 48.8 91.5C62 100.8 82.6 115.6 82.6 133.8C82.6 150.9 69.3 161.5 47.8 161.5C22.7 161.5 4.4 146.6 0 142.6L11.1 162.3Z" fill="#AD9C62"></path><path fill-rule="evenodd" clip-rule="evenodd" d="M223.2 170.4C180.5 170.4 147.4 136.4 147.4 87.9C147.4 39.5 180.5 5.5 223.2 5.5C265.8 5.5 298.8 40.7 298.8 87.9C298.8 135.2 265.8 170.4 223.2 170.4ZM275.4 87.9C275.4 44.8 254.5 14.3 223.2 14.3C191.8 14.3 170.9 44.8 170.9 87.9C170.9 131.1 191.8 161.5 223.2 161.5C254.5 161.5 275.4 131.3 275.4 87.9Z" fill="#AD9C62"></path><path fill-rule="evenodd" clip-rule="evenodd" d="M792.9 120.8H731.3L712.1 167.7H703L769.8 4.69995L836.6 167.7H812.1L792.9 120.9V120.8ZM735 111.9H789.3L762.1 45.5L735 111.9Z" fill="#AD9C62"></path><path d="M630.1 8.29995V73.7H544.5V8.19995H521.1V167.7H544.5V82.6H630.1V167.7H653.5V8.19995H630.1V8.29995Z" fill="#AD9C62"></path><path fill-rule="evenodd" clip-rule="evenodd" d="M462.5 123.4C462.5 154.1 433.5 167.7 400 167.7H355.8V8.19995H389.6C419.3 8.19995 442.7 19.1999 442.7 44.7999C442.7 61.2999 432.6 71.8 417.8 77.2C444.4 82.4 462.5 99 462.5 123.4ZM397.9 158.7C425.5 158.7 437.8 143.3 437.8 121C437.8 108.3 433.8 97.2 425.1 90.1C416.9 82.5 406.5 79 401 77.7C422.7 72.9 420.9 46.6 420.9 43.9C420.9 27.8 413.5 17.1 391.5 17.1H379.2V158.7H397.9Z" fill="#AD9C62"></path><path d="M11.1 162.3C22 167.9 35.8 170.4 47.7 170.4C68.3 170.4 104.6 163 104.6 126.9C104.6 101.5 86.3 87.3 56.2 66.8C42.2 56.9 23.2 46.9 23.2 30.6C23.2 17 35.7 8.9 53.1 8.9C70.5 8.9 84.2 17.2 87.4 19.3L78.8 4.3C73 1.1 60.2 0 53.4 0C30.3 0 3.4 9.7 3.4 37.2C3.4 58.9 20.5 71.1 48.8 91.5C62 100.8 82.6 115.6 82.6 133.8C82.6 150.9 69.3 161.5 47.8 161.5C22.7 161.5 4.4 146.6 0 142.6L11.1 162.3Z" fill="#AD9C62"></path><path fill-rule="evenodd" clip-rule="evenodd" d="M223.2 170.4C180.5 170.4 147.4 136.4 147.4 87.9C147.4 39.5 180.5 5.5 223.2 5.5C265.8 5.5 298.8 40.7 298.8 87.9C298.8 135.2 265.8 170.4 223.2 170.4ZM275.4 87.9C275.4 44.8 254.5 14.3 223.2 14.3C191.8 14.3 170.9 44.8 170.9 87.9C170.9 131.1 191.8 161.5 223.2 161.5C254.5 161.5 275.4 131.3 275.4 87.9Z" fill="#AD9C62"></path><path fill-rule="evenodd" clip-rule="evenodd" d="M792.9 120.8H731.3L712.1 167.7H703L769.8 4.69995L836.6 167.7H812.1L792.9 120.9V120.8ZM735 111.9H789.3L762.1 45.5L735 111.9Z" fill="#AD9C62"></path><path d="M630.1 8.29995V73.7H544.5V8.19995H521.1V167.7H544.5V82.6H630.1V167.7H653.5V8.19995H630.1V8.29995Z" fill="#AD9C62"></path><path fill-rule="evenodd" clip-rule="evenodd" d="M303.3 273.7H296.2V237.4H313.6C321.9 237.4 326 241.4 326 247.7V249.7C326 254.5 323 258.1 318.1 259.4L327.4 273.8H319.6L310.8 260H303.3C303.3 260 303.3 273.8 303.3 273.7ZM303.3 254.6H312C316.7 254.6 318.9 252.6 318.9 249.5V248C318.9 244.7 317 243 312.3 243H303.3V254.6Z" fill="#AD9C62"></path><path d="M371.2 237.4V243.3H350.7V252.5H366.6V258.1H350.7V267.8H371.2V273.7H343.8V237.4H371.2Z" fill="#AD9C62"></path><path fill-rule="evenodd" clip-rule="evenodd" d="M408.2 266.1H392.1L389.3 273.7H382.1L396.3 237.1H404.2L418.5 273.7H411.1L408.2 266.1ZM394.1 260.8H406.2L400.2 244.8H400.1L394.1 260.8Z" fill="#AD9C62"></path><path d="M440.8 237.4V267.6H458.9V273.7H433.7V237.4H440.8Z" fill="#AD9C62"></path><path d="M498.1 237.4V243.5H485.8V273.7H478.7V243.5H466.4V237.4H498.1Z" fill="#AD9C62"></path><path d="M517.3 237.4L526.9 253.7L536.4 237.4H544.1L530.3 259.8V273.7H523.2V259.8L509.4 237.4H517.3Z" fill="#AD9C62"></path></g><defs><clipPath id="clip0_325_2"><rect width="837" height="274" fill="white"></rect></clipPath></defs></svg> 