<svg width="12" height="7" viewBox="0 0 12 7" fill="none" xmlns="http://www.w3.org/2000/svg">
<path d="M5.5322 4.41602L9.7142 0.232018C9.78734 0.158485 9.87427 0.100134 9.97003 0.0603161C10.0658 0.0204983 10.1685 0 10.2722 0C10.3759 0 10.4786 0.0204983 10.5743 0.0603161C10.6701 0.100134 10.7571 0.158485 10.8302 0.232018C10.9765 0.381516 11.0584 0.582357 11.0584 0.791517C11.0584 1.00068 10.9765 1.20152 10.8302 1.35102L6.0932 6.09102C5.94939 6.23438 5.75582 6.31678 5.5528 6.32106C5.34977 6.32535 5.15294 6.25119 5.0032 6.11402L0.232209 1.35302C0.158734 1.27974 0.100387 1.19271 0.0605476 1.09689C0.020708 1.00107 0.000140001 0.898348 7.11603e-07 0.794579C-0.000138578 0.690809 0.020172 0.588027 0.0597541 0.492104C0.0993363 0.39618 0.157405 0.308992 0.230683 0.235518C0.303961 0.162043 0.391 0.10372 0.486817 0.0638809C0.582634 0.0240414 0.685355 0.0034657 0.789124 0.00332642C0.892894 0.00318713 0.995691 0.0234881 1.09161 0.0630703C1.18754 0.102652 1.27473 0.160741 1.34821 0.234018L5.5322 4.41602Z" fill="black"/>
</svg>
