<svg width="12" height="8" viewBox="0 0 12 8" fill="none" xmlns="http://www.w3.org/2000/svg">
<path d="M0.296013 0.300586C0.106402 0.491645 0 0.74991 0 1.01909C0 1.28826 0.106402 1.54653 0.296013 1.73759L5.33401 6.76059C5.5186 6.9447 5.76696 7.05073 6.02761 7.05669C6.28826 7.06264 6.5412 6.96808 6.73401 6.79259L11.699 1.84359C11.8896 1.65369 11.9969 1.39588 11.9974 1.12685C11.9978 0.857833 11.8914 0.599645 11.7015 0.409086C11.5116 0.218528 11.2538 0.111211 10.9848 0.110742C10.7158 0.110273 10.4576 0.216691 10.267 0.406586L6.00201 4.60659L1.73201 0.294586C1.63736 0.200642 1.52512 0.126272 1.4017 0.0757268C1.27829 0.0251816 1.14613 -0.000548355 1.01277 8.86031e-06C0.879409 0.000566076 0.747466 0.0273994 0.624481 0.078974C0.501496 0.130549 0.38988 0.205854 0.296013 0.300586Z" fill="#EF4136"/>
</svg>
