<svg xmlns="http://www.w3.org/2000/svg" width="235.851" height="40" viewBox="0 0 235.851 40">
    <defs>
        <clipPath id="zitbuxvyea">
            <path data-name="Rectangle 18" style="fill:none" d="M0 0h235.851v40H0z"/>
        </clipPath>
        <clipPath id="hd5n32q3hb">
            <path data-name="Rectangle 15" style="fill:none" d="M0 0h39.303v39.303H0z"/>
        </clipPath>
    </defs>
    <g data-name="Group 43">
        <g data-name="Group 14" style="clip-path:url(#zitbuxvyea)">
            <g data-name="Group 13" style="isolation:isolate">
                <g data-name="Group 12">
                    <g data-name="Group 11" style="clip-path:url(#hd5n32q3hb)" transform="translate(.36 .406)">
                        <path data-name="Path 48" d="M20.516.975A19.652 19.652 0 1 1 .864 20.627 19.652 19.652 0 0 1 20.516.975" transform="translate(-.864 -.975)" style="opacity:.2;fill:#fff"/>
                    </g>
                </g>
            </g>
            <path data-name="Path 49" d="M20 0a20 20 0 1 0 20 20A20 20 0 0 0 20 0m0 38.755A18.755 18.755 0 1 1 38.755 20 18.755 18.755 0 0 1 20 38.755" style="fill:#fff"/>
            <path data-name="Path 50" d="M166.168 19.844a2.563 2.563 0 1 0 2.594 2.563 2.539 2.539 0 0 0-2.594-2.563" transform="translate(-95.482 -11.583)" style="fill:#fff"/>
            <path data-name="Rectangle 16" transform="translate(68.629 15.759)" style="fill:#fff" d="M0 0h4.113v16.136H0z"/>
            <path data-name="Path 51" d="M189.987 36.945a6.64 6.64 0 0 0-5.126 2.183v-1.8h-4.112V53.46h4.112V44.6a3.513 3.513 0 0 1 3.765-3.67 3.355 3.355 0 0 1 3.544 3.607v8.923h4.113V43.21a5.9 5.9 0 0 0-6.3-6.265" transform="translate(-105.507 -21.566)" style="fill:#fff"/>
            <path data-name="Path 52" d="M234.387 30.11a6.966 6.966 0 0 0-5.252-2.31c-4.493 0-7.878 3.638-7.878 8.447s3.385 8.447 7.878 8.447a6.964 6.964 0 0 0 5.252-2.31v1.93h4.113V21.28h-4.113zm-4.461 10.6a4.461 4.461 0 1 1 4.461-4.461 4.351 4.351 0 0 1-4.461 4.461" transform="translate(-129.153 -12.422)" style="fill:#fff"/>
            <path data-name="Path 53" d="M269.983 19.844a2.563 2.563 0 1 0 2.594 2.563 2.539 2.539 0 0 0-2.594-2.563" transform="translate(-156.081 -11.583)" style="fill:#fff"/>
            <path data-name="Rectangle 17" transform="translate(111.845 15.759)" style="fill:#fff" d="M0 0h4.113v16.136H0z"/>
            <path data-name="Path 54" d="M293.8 36.945a6.64 6.64 0 0 0-5.126 2.183v-1.8h-4.112V53.46h4.112V44.6a3.513 3.513 0 0 1 3.765-3.67 3.355 3.355 0 0 1 3.544 3.607v8.923h4.117V43.21a5.9 5.9 0 0 0-6.3-6.265" transform="translate(-166.107 -21.566)" style="fill:#fff"/>
            <path data-name="Path 55" d="M382.822 31.221h-8.849V21.176h-4.366v23.079h4.366v-8.922h8.849v8.922h4.366V21.176h-4.366z" transform="translate(-215.749 -12.361)" style="fill:#fff"/>
            <path data-name="Path 56" d="M424.763 36.945a8.45 8.45 0 1 0 8.669 8.447 8.38 8.38 0 0 0-8.669-8.447m0 12.908a4.461 4.461 0 1 1 4.43-4.461 4.352 4.352 0 0 1-4.43 4.461" transform="translate(-242.884 -21.566)" style="fill:#fff"/>
            <path data-name="Path 57" d="M480.848 36.945a6.6 6.6 0 0 0-5.505 2.626 5.678 5.678 0 0 0-5.062-2.626A6.106 6.106 0 0 0 465.5 39v-1.675h-4.11V53.46h4.11v-9.206a3.189 3.189 0 0 1 3.386-3.322 3.039 3.039 0 0 1 3.195 3.259v9.27h4.119v-9.207a3.172 3.172 0 0 1 3.386-3.322 3.015 3.015 0 0 1 3.164 3.259v9.27h4.112v-10.5a5.647 5.647 0 0 0-6.011-6.011" transform="translate(-269.324 -21.566)" style="fill:#fff"/>
            <path data-name="Path 58" d="M542.661 45.424a8.527 8.527 0 0 0-17.053-.095c0 4.841 3.828 8.511 8.954 8.511a9.4 9.4 0 0 0 7.309-3.227l-2.753-2.4a5.709 5.709 0 0 1-4.429 1.993 4.527 4.527 0 0 1-4.619-3.321h12.5a11.313 11.313 0 0 0 .094-1.456m-12.624-1.55a4.207 4.207 0 0 1 8.226 0z" transform="translate(-306.81 -21.566)" style="fill:#fff"/>
            <path data-name="Path 59" d="M127.246 21.176v23.08h4.366v-8.6h8.6v-4.37h-8.6v-5.744h8.6v-4.366h-12.966z" transform="translate(-74.276 -12.361)" style="fill:#fff"/>
            <path data-name="Path 60" d="M336.373 50.792h-5.252c-1.012 0-1.708-.569-1.708-1.361a1.69 1.69 0 0 1 .822-1.392 9 9 0 0 0 2.658.411c4.3 0 7.593-3.037 7.593-7.087a6.769 6.769 0 0 0-1.392-4.176 2.051 2.051 0 0 1 1.565-1.373l-1.413-3.441a3.718 3.718 0 0 0-2.841 2.663 8.4 8.4 0 0 0-3.512-.76c-4.335 0-7.562 3.038-7.562 7.087a6.727 6.727 0 0 0 2.151 5.031 4.815 4.815 0 0 0-2.183 4.05c0 2.563 1.993 4.3 5 4.3h5.283a2.293 2.293 0 0 1 2.563 1.93h4.24a5.794 5.794 0 0 0-6.011-5.884m-3.48-12.624a3.2 3.2 0 1 1-3.354 3.2 3.206 3.206 0 0 1 3.354-3.2" transform="translate(-189.885 -18.897)" style="fill:#fff"/>
            <path data-name="Path 61" d="m39.858 33.538 3.087-3.087-6.083-6.084-3.088-3.087-7.149 7.149-3.087 3.088-6.083 6.083 3.087 3.087 6.083-6.087 6.084 6.083L35.8 37.6l-6.083-6.083 4.062-4.062z" transform="translate(-10.189 -12.422)" style="fill:#fff"/>
        </g>
    </g>
</svg>
