<svg width="35" height="30" viewBox="0 0 35 30" fill="none" xmlns="http://www.w3.org/2000/svg">
<path d="M20.0037 29.0396H17.6657C17.4591 29.0396 17.261 28.9576 17.1149 28.8115C16.9688 28.6654 16.8867 28.4672 16.8867 28.2606C16.8867 28.054 16.9688 27.8559 17.1149 27.7098C17.261 27.5637 17.4591 27.4816 17.6657 27.4816H20.0027C27.6777 27.4816 33.2487 25.5156 33.2487 22.8066C33.2487 19.9246 27.4627 16.5736 20.0027 16.5736C19.7961 16.5736 19.598 16.4915 19.4519 16.3455C19.3058 16.1994 19.2237 16.0012 19.2237 15.7946C19.2237 15.588 19.3058 15.3899 19.4519 15.2438C19.598 15.0977 19.7961 15.0156 20.0027 15.0156C27.8887 15.0156 34.8027 18.6566 34.8027 22.8066C34.8027 26.5926 28.9917 29.0396 20.0027 29.0396" fill="black"/>
<path d="M20.0011 16.5722C19.7945 16.5722 19.5963 16.4901 19.4502 16.344C19.3041 16.1979 19.2221 15.9998 19.2221 15.7932C19.2221 15.5866 19.3041 15.3884 19.4502 15.2424C19.5963 15.0963 19.7945 15.0142 20.0011 15.0142C25.5061 15.0142 29.3521 13.7322 29.3521 11.8972C29.3521 10.2422 24.2301 7.58119 19.1831 7.22119L18.0441 7.18919C15.8197 7.2786 13.6839 8.08547 11.9561 9.48919C11.8807 9.5582 11.7925 9.61168 11.6964 9.64659C11.6004 9.6815 11.4984 9.69716 11.3963 9.69265C11.2942 9.68815 11.194 9.66358 11.1014 9.62035C11.0088 9.57712 10.9256 9.51607 10.8566 9.44069C10.7876 9.36531 10.7341 9.27707 10.6992 9.18102C10.6642 9.08497 10.6486 8.98299 10.6531 8.88089C10.6576 8.77879 10.6822 8.67858 10.7254 8.58598C10.7686 8.49338 10.8297 8.4102 10.9051 8.34119C11.8721 7.48197 13.0003 6.82354 14.2241 6.40419C13.1761 5.94119 12.9881 5.37019 12.9881 4.89219C12.9881 2.92619 16.4621 0.992188 20.0001 0.992188C23.5381 0.992188 27.0131 2.92219 27.0131 4.89219C27.0131 5.51119 26.7011 6.28619 24.6341 6.78019C27.9841 7.90019 30.9081 9.75119 30.9081 11.9042C30.9081 14.8312 26.8301 16.5792 19.9991 16.5792M19.2401 5.66419H20.7801C23.6611 5.54019 25.1311 5.09419 25.4461 4.81219C25.2921 4.15519 23.1871 2.54819 20.0011 2.54819C16.8151 2.54819 14.7201 4.14819 14.5571 4.80819C14.8801 5.08919 16.3501 5.53419 19.2401 5.66419Z" fill="black"/>
<path d="M5.19875 29.0347C5.0466 29.0346 4.89781 28.9899 4.77074 28.9062C4.64368 28.8225 4.54391 28.7035 4.48375 28.5637C3.28375 25.7807 3.72275 24.0097 4.30375 23.0147C4.40694 22.8347 4.52081 22.6611 4.64475 22.4947C4.46088 22.4438 4.27908 22.3858 4.09975 22.3207C3.22139 22.0147 2.43536 21.4902 1.81569 20.7965C1.19603 20.1029 0.763124 19.2629 0.557749 18.3557C0.507957 18.1935 0.512463 18.0195 0.570581 17.8602C0.6287 17.7008 0.737255 17.5647 0.879751 17.4727C2.90475 16.1637 4.95575 15.7297 6.45475 16.2727C6.51975 16.2957 6.58375 16.3207 6.64775 16.3447V16.1377C6.68193 15.1637 6.95114 14.2124 7.43242 13.365C7.9137 12.5175 8.59277 11.799 9.41175 11.2707C9.54628 11.171 9.7093 11.1172 9.87675 11.1172C10.0442 11.1172 10.2072 11.171 10.3417 11.2707C11.1604 11.7993 11.8391 12.5179 12.3202 13.3653C12.8013 14.2127 13.0704 15.1639 13.1047 16.1377V16.3437C13.1677 16.3197 13.2318 16.2947 13.2968 16.2717C14.7968 15.7317 16.8458 16.1657 18.8728 17.4717C19.0152 17.5638 19.1238 17.6998 19.1819 17.8592C19.24 18.0185 19.2445 18.1925 19.1947 18.3547C18.9892 19.2619 18.5562 20.1019 17.9366 20.7957C17.317 21.4895 16.531 22.0143 15.6528 22.3207C15.4734 22.3857 15.2916 22.4437 15.1078 22.4947C15.2316 22.6614 15.3458 22.835 15.4498 23.0147C16.0308 24.0097 16.4708 25.7797 15.2698 28.5637C15.2027 28.7174 15.0882 28.8455 14.9429 28.9292C14.7976 29.0129 14.6293 29.0478 14.4628 29.0287C13.5371 28.9835 12.6364 28.7142 11.8379 28.2438C11.0394 27.7735 10.3671 27.1163 9.87875 26.3287C9.39081 27.1162 8.71885 27.7734 7.92069 28.2437C7.12254 28.714 6.22207 28.9834 5.29675 29.0287C5.26622 29.0323 5.23549 29.034 5.20475 29.0337M9.87375 22.8007C10.0687 22.801 10.2565 22.8744 10.4 23.0064C10.5435 23.1384 10.6322 23.3194 10.6488 23.5137C10.6951 24.1895 10.8717 24.8499 11.1687 25.4587C11.4685 25.9809 11.8846 26.4268 12.3849 26.7619C12.8851 27.097 13.4558 27.3122 14.0528 27.3907C14.3164 26.8302 14.4567 26.2198 14.4643 25.6005C14.4719 24.9812 14.3465 24.3674 14.0968 23.8007C13.8386 23.3263 13.459 22.929 12.9968 22.6497C12.8648 22.5815 12.7551 22.477 12.6805 22.3485C12.606 22.2201 12.5697 22.073 12.576 21.9245C12.5823 21.7761 12.6309 21.6326 12.7161 21.5109C12.8013 21.3893 12.9195 21.2944 13.0567 21.2377C13.1561 21.2023 13.2603 21.1824 13.3658 21.1787C13.9651 21.1749 14.5591 21.0659 15.1208 20.8567C15.6765 20.6717 16.1813 20.3591 16.5948 19.9441C17.0082 19.5292 17.3188 19.0232 17.5017 18.4667C16.6566 17.9399 15.6897 17.6405 14.6947 17.5977C14.398 17.5934 14.1027 17.6401 13.8218 17.7357C13.3707 17.8897 12.946 18.1123 12.5627 18.3957C12.4279 18.499 12.2629 18.5554 12.093 18.5562C11.9231 18.5571 11.7576 18.5024 11.6217 18.4004C11.4858 18.2985 11.3869 18.1549 11.3402 17.9916C11.2934 17.8283 11.3013 17.6541 11.3627 17.4957C11.4931 17.0544 11.5555 16.5958 11.5478 16.1357C11.5225 15.5064 11.3599 14.8902 11.0714 14.3304C10.7829 13.7705 10.3755 13.2805 9.87775 12.8947C9.37992 13.2805 8.97248 13.7705 8.684 14.3303C8.39551 14.8902 8.23297 15.5064 8.20775 16.1357C8.19811 16.6027 8.26154 17.0683 8.39575 17.5157C8.44577 17.6528 8.45626 17.8013 8.42601 17.9441C8.39576 18.0869 8.326 18.2183 8.22468 18.3234C8.12335 18.4285 7.99454 18.5029 7.85293 18.5384C7.71132 18.5738 7.56261 18.5687 7.42375 18.5237C7.33513 18.4954 7.2522 18.4518 7.17875 18.3947C6.79713 18.1115 6.37372 17.8895 5.92375 17.7367C5.64291 17.6405 5.34758 17.5935 5.05075 17.5977C4.05581 17.6405 3.08886 17.9399 2.24375 18.4667C2.4266 19.0231 2.73705 19.529 3.1503 19.944C3.56355 20.359 4.06814 20.6715 4.62375 20.8567C5.17261 21.062 5.75281 21.1709 6.33875 21.1787C6.45251 21.1701 6.56675 21.1871 6.67314 21.2282C6.77953 21.2694 6.87539 21.3338 6.95375 21.4167C7.03637 21.5027 7.09811 21.6066 7.13419 21.7202C7.17028 21.8339 7.17974 21.9544 7.16186 22.0723C7.14398 22.1902 7.09923 22.3024 7.03107 22.4003C6.96291 22.4982 6.87315 22.579 6.76875 22.6367C6.29697 22.9152 5.90954 23.3164 5.64775 23.7977C5.39726 24.3643 5.27155 24.9781 5.27914 25.5975C5.28673 26.2169 5.42745 26.8275 5.69175 27.3877C6.28853 27.3095 6.85919 27.0946 7.35925 26.7596C7.85932 26.4247 8.2753 25.9788 8.57475 25.4567C8.86644 24.8472 9.04371 24.1893 9.09775 23.5157C9.11453 23.3215 9.20358 23.1407 9.34728 23.0091C9.49098 22.8774 9.67886 22.8045 9.87375 22.8047" fill="black"/>
<path d="M9.09375 20.4655C9.09355 20.6196 9.13907 20.7703 9.22455 20.8986C9.31003 21.0268 9.43162 21.1268 9.57394 21.1859C9.71627 21.245 9.87293 21.2606 10.0241 21.2307C10.1753 21.2007 10.3142 21.1266 10.4232 21.0177C10.5323 20.9088 10.6066 20.77 10.6367 20.6188C10.6668 20.4677 10.6515 20.311 10.5925 20.1686C10.5336 20.0262 10.4338 19.9045 10.3056 19.8189C10.1775 19.7332 10.0269 19.6875 9.87275 19.6875C9.66615 19.6875 9.46801 19.7696 9.32192 19.9157C9.17582 20.0618 9.09375 20.2589 9.09375 20.4655Z" fill="black"/>
</svg>
