<svg width="27" height="27" viewBox="0 0 27 27" fill="none" xmlns="http://www.w3.org/2000/svg">
<path d="M13.1312 7.01244C12.2469 7.01125 11.371 7.18458 10.5538 7.52249C9.73653 7.86039 8.994 8.35624 8.36872 8.98161C7.74344 9.60699 7.2477 10.3496 6.90992 11.1669C6.57213 11.9842 6.39893 12.8601 6.40025 13.7444C6.39893 14.6289 6.57216 15.5049 6.91001 16.3222C7.24786 17.1396 7.74368 17.8822 8.36907 18.5076C8.99446 19.133 9.73711 19.6288 10.5545 19.9667C11.3718 20.3045 12.2478 20.4778 13.1322 20.4764C14.0167 20.4778 14.8927 20.3045 15.71 19.9667C16.5274 19.6288 17.27 19.133 17.8954 18.5076C18.5208 17.8822 19.0166 17.1396 19.3545 16.3222C19.6923 15.5049 19.8656 14.6289 19.8643 13.7444C19.8656 12.8599 19.6923 11.9838 19.3544 11.1664C19.0165 10.349 18.5206 9.6063 17.8951 8.9809C17.2696 8.35551 16.5268 7.8597 15.7093 7.52191C14.8919 7.18412 14.0158 7.01099 13.1312 7.01244ZM13.1312 18.1214C11.971 18.1193 10.859 17.6575 10.0386 16.8371C9.21819 16.0167 8.75636 14.9046 8.75425 13.7444C8.75531 12.5839 9.2168 11.4712 10.0374 10.6506C10.858 9.82998 11.9707 9.3685 13.1312 9.36744C14.2918 9.3685 15.4045 9.82998 16.2251 10.6506C17.0457 11.4712 17.5072 12.5839 17.5082 13.7444C17.5061 14.9046 17.0443 16.0167 16.2239 16.8371C15.4035 17.6575 14.2915 18.1193 13.1312 18.1214ZM21.7092 6.73644C21.7092 6.32005 21.5438 5.92071 21.2494 5.62628C20.955 5.33185 20.5556 5.16644 20.1392 5.16644C19.7229 5.16644 19.3235 5.33185 19.0291 5.62628C18.7347 5.92071 18.5693 6.32005 18.5693 6.73644C18.5689 6.94272 18.6092 7.14706 18.688 7.33772C18.7667 7.52838 18.8823 7.70161 19.0282 7.84748C19.1741 7.99334 19.3473 8.10897 19.538 8.18773C19.7286 8.26649 19.933 8.30683 20.1392 8.30644C20.3455 8.30683 20.5499 8.26649 20.7405 8.18773C20.9312 8.10897 21.1044 7.99334 21.2503 7.84748C21.3962 7.70161 21.5118 7.52838 21.5905 7.33772C21.6693 7.14706 21.7096 6.94272 21.7092 6.73644ZM26.1682 8.33044C26.211 6.2897 25.4491 4.31406 24.0473 2.83044C22.5607 1.43324 20.587 0.672134 18.5473 0.709438C16.3793 0.586438 9.88125 0.586438 7.71325 0.709438C5.6741 0.669343 3.70015 1.42842 2.21325 2.82444C0.814034 4.30975 0.0525969 6.28424 0.09225 8.32444C-0.03075 10.4924 -0.03075 16.9904 0.09225 19.1584C0.0478705 21.1993 0.808319 23.1757 2.20925 24.6604C3.69641 26.0567 5.66966 26.8177 7.70925 26.7814C9.87725 26.9044 16.3752 26.9044 18.5432 26.7814C20.584 26.8242 22.5596 26.0623 24.0432 24.6604C25.4404 23.1739 26.2016 21.2002 26.1642 19.1604C26.2872 16.9924 26.2872 10.5004 26.1642 8.33244L26.1682 8.33044ZM23.3682 21.4844C23.1454 22.0504 22.8085 22.5645 22.3784 22.9946C21.9483 23.4247 21.4342 23.7616 20.8682 23.9844C19.1392 24.6704 15.0383 24.5114 13.1283 24.5114C11.2183 24.5114 7.11325 24.6604 5.39125 23.9804C4.82526 23.7576 4.31121 23.4207 3.8811 22.9906C3.451 22.5605 3.11405 22.0464 2.89125 21.4804C2.20525 19.7514 2.36425 15.6504 2.36425 13.7404C2.36425 11.8304 2.21225 7.72244 2.89125 6.00044C3.11405 5.43445 3.451 4.9204 3.8811 4.49029C4.31121 4.06019 4.82526 3.72324 5.39125 3.50044C7.12025 2.81444 11.2212 2.97344 13.1312 2.97344C15.0412 2.97344 19.1493 2.82144 20.8713 3.50044C21.4372 3.72324 21.9513 4.06019 22.3814 4.49029C22.8115 4.9204 23.1484 5.43445 23.3713 6.00044C24.0573 7.72944 23.8983 11.8304 23.8983 13.7404C23.8983 15.6504 24.0542 19.7624 23.3682 21.4844Z" fill="#FDE2E1"/>
</svg>
