<svg xmlns="http://www.w3.org/2000/svg" width="18.08" height="20.09" viewBox="0 0 18.08 20.09">
    <g data-name="Icon feather-user">
        <path data-name="Path 65" d="M22.08 29.53a1 1 0 0 1-1-1v-2.01a3.023 3.023 0 0 0-3.02-3.02h-8.04A3.02 3.02 0 0 0 7 26.52v2.01a1 1 0 1 1-2 0v-2.01a5.02 5.02 0 0 1 5.02-5.02h8.04a5.026 5.026 0 0 1 5.02 5.02v2.01a1 1 0 0 1-1 1z" transform="translate(-5 -9.44)" style="fill:#fde2e1"/>
        <path data-name="Path 66" d="M16.02 3.5A5.02 5.02 0 1 1 11 8.52a5.026 5.026 0 0 1 5.02-5.02zm0 8.04A3.02 3.02 0 1 0 13 8.52a3.023 3.023 0 0 0 3.02 3.02z" transform="translate(-6.98 -3.5)" style="fill:#fde2e1"/>
    </g>
</svg>
