<svg width="31" height="30" viewBox="0 0 31 30" fill="none" xmlns="http://www.w3.org/2000/svg">
<mask id="mask0_2636_66" style="mask-type:luminance" maskUnits="userSpaceOnUse" x="0" y="0" width="31" height="30">
<path d="M0.0351562 0.984375H30.9822V29.0344H0.0351562V0.984375Z" fill="white"/>
</mask>
<g mask="url(#mask0_2636_66)">
<path d="M18.1897 20.0296C17.6557 20.0361 17.126 19.9341 16.6327 19.7296L2.16868 13.4436C1.5408 13.1694 1.04655 12.6584 0.79338 12.0217C0.540209 11.385 0.548584 10.6742 0.816683 10.0436L4.02968 2.54364C4.16365 2.23199 4.35783 1.94987 4.60108 1.71344C4.84433 1.47701 5.13186 1.29093 5.44719 1.16588C5.76252 1.04083 6.09943 0.979258 6.4386 0.984708C6.77778 0.990157 7.11254 1.06252 7.42368 1.19764L30.5237 11.2976C30.6507 11.3534 30.7604 11.4424 30.8413 11.5551C30.9221 11.6678 30.9712 11.8002 30.9834 11.9384C30.9956 12.0766 30.9704 12.2155 30.9104 12.3407C30.8505 12.4658 30.758 12.5725 30.6427 12.6496L20.5427 19.3796C19.836 19.8148 19.0194 20.0382 18.1897 20.0236M6.39468 2.52964C6.19323 2.529 5.99603 2.58763 5.82765 2.69823C5.65927 2.80883 5.52713 2.96651 5.44768 3.15164L2.23468 10.6516C2.12632 10.9067 2.12286 11.1942 2.22508 11.4518C2.32729 11.7094 2.52692 11.9163 2.78068 12.0276L17.2477 18.3186C17.6472 18.4495 18.0692 18.4978 18.488 18.4605C18.9068 18.4232 19.3136 18.3011 19.6837 18.1016L28.6007 12.1566L6.80268 2.61464C6.6737 2.55831 6.53543 2.52936 6.39468 2.52964Z" fill="black"/>
<path d="M25.5654 20.5178C25.4671 20.5181 25.3696 20.4994 25.2784 20.4628L21.4094 18.9158C21.3123 18.8801 21.2233 18.8253 21.1477 18.7547C21.0721 18.684 21.0115 18.5989 20.9694 18.5044C20.9273 18.4099 20.9045 18.3079 20.9025 18.2045C20.9005 18.1011 20.9192 17.9983 20.9576 17.9022C20.9959 17.8061 21.0532 17.7187 21.1259 17.6451C21.1987 17.5716 21.2854 17.5133 21.381 17.4739C21.4767 17.4344 21.5793 17.4145 21.6827 17.4153C21.7862 17.4162 21.8884 17.4378 21.9834 17.4788L25.1174 18.7318L27.1614 13.2828C27.1971 13.1877 27.2513 13.1005 27.3208 13.0263C27.3903 12.9521 27.4737 12.8923 27.5663 12.8503C27.6588 12.8083 27.7588 12.785 27.8604 12.7817C27.962 12.7783 28.0632 12.795 28.1584 12.8308C28.2535 12.8666 28.3407 12.9208 28.4149 12.9902C28.4891 13.0597 28.5489 13.1431 28.5908 13.2357C28.6328 13.3283 28.6561 13.4282 28.6595 13.5298C28.6628 13.6314 28.6461 13.7327 28.6104 13.8278L26.2894 20.0168C26.2337 20.164 26.1344 20.2906 26.0049 20.38C25.8754 20.4693 25.7217 20.517 25.5644 20.5168" fill="black"/>
<path d="M11.6947 17.1434L8.79466 24.3934H1.58266V22.8464H6.99866C7.13512 22.8465 7.26919 22.8105 7.38722 22.742C7.50525 22.6735 7.60304 22.575 7.67066 22.4564L10.7657 17.0404L9.42266 16.2734L6.54966 21.2994H1.58266V18.9784C1.58639 18.8745 1.56915 18.7709 1.53196 18.6738C1.49477 18.5767 1.4384 18.4881 1.3662 18.4132C1.29401 18.3384 1.20748 18.2789 1.11177 18.2382C1.01606 18.1976 0.913141 18.1766 0.809156 18.1766C0.705172 18.1766 0.602253 18.1976 0.506545 18.2382C0.410837 18.2789 0.324303 18.3384 0.252108 18.4132C0.179913 18.4881 0.123538 18.5767 0.086349 18.6738C0.0491599 18.7709 0.0319192 18.8745 0.0356563 18.9784V28.2624C0.0319192 28.3664 0.0491599 28.47 0.086349 28.5671C0.123538 28.6642 0.179913 28.7528 0.252108 28.8276C0.324303 28.9025 0.410837 28.962 0.506545 29.0026C0.602253 29.0433 0.705172 29.0643 0.809156 29.0643C0.913141 29.0643 1.01606 29.0433 1.11177 29.0026C1.20748 28.962 1.29401 28.9025 1.3662 28.8276C1.4384 28.7528 1.49477 28.6642 1.53196 28.5671C1.56915 28.47 1.58639 28.3664 1.58266 28.2624V25.9414H9.31966C9.47398 25.941 9.62464 25.8944 9.75225 25.8076C9.87985 25.7208 9.97856 25.5978 10.0357 25.4544L13.1357 17.7144C13.2947 17.3144 11.8587 16.7424 11.6987 17.1404" fill="black"/>
</g>
</svg>
