<svg width="27" height="27" viewBox="0 0 27 27" fill="none" xmlns="http://www.w3.org/2000/svg">
<path d="M24.375 0.625H1.86903C1.37032 0.628701 0.893445 0.830095 0.543051 1.18499C0.192657 1.53988 -0.00263542 2.01928 2.68668e-05 2.518V24.982C-0.00263542 25.4807 0.192657 25.9601 0.543051 26.315C0.893445 26.6699 1.37032 26.8713 1.86903 26.875H24.375C24.8744 26.8716 25.352 26.6704 25.7034 26.3157C26.0548 25.9609 26.2514 25.4814 26.25 24.982V2.518C26.2514 2.01865 26.0548 1.53911 25.7034 1.18433C25.352 0.829552 24.8744 0.628437 24.375 0.625ZM7.93403 23.125H4.04303V10.6H7.94303V23.125H7.93403ZM5.98803 8.887C5.38978 8.88673 4.81611 8.64897 4.39309 8.22594C3.97006 7.80292 3.73229 7.22925 3.73203 6.631C3.73229 6.03275 3.97006 5.45908 4.39309 5.03606C4.81611 4.61304 5.38978 4.37527 5.98803 4.375C6.58595 4.37632 7.159 4.61443 7.5818 5.03723C8.0046 5.46002 8.24271 6.03308 8.24403 6.631C8.24442 6.92737 8.18634 7.22091 8.0731 7.4948C7.95987 7.76869 7.79371 8.01755 7.58414 8.22711C7.37457 8.43668 7.12572 8.60284 6.85183 8.71608C6.57794 8.82931 6.2844 8.88739 5.98803 8.887ZM22.518 23.125H18.627V17.031C18.627 15.578 18.598 13.709 16.606 13.709C14.579 13.709 14.268 15.291 14.268 16.926V23.126H10.377V10.6H14.109V12.311H14.162C14.5368 11.6728 15.0774 11.148 15.7263 10.7922C16.3753 10.4363 17.1084 10.2628 17.848 10.29C21.786 10.29 22.518 12.89 22.518 16.261V23.125Z" fill="#FDE2E1"/>
</svg>
