<svg width="28" height="30" viewBox="0 0 28 30" fill="none" xmlns="http://www.w3.org/2000/svg">
<mask id="mask0_2636_72" style="mask-type:luminance" maskUnits="userSpaceOnUse" x="0" y="0" width="28" height="30">
<path d="M0.0625 0.984375H27.5065V29.0344H0.0625V0.984375Z" fill="white"/>
</mask>
<g mask="url(#mask0_2636_72)">
<path d="M22.5251 17.1419C22.3966 17.1421 22.2729 17.0927 22.1798 17.0041C22.0867 16.9154 22.0313 16.7943 22.0251 16.6659L21.4251 5.46594H8.44613L8.02813 12.8809C8.0207 13.0135 7.9609 13.1378 7.86188 13.2263C7.76286 13.3148 7.63274 13.3604 7.50013 13.3529C7.36752 13.3455 7.24329 13.2857 7.15478 13.1867C7.06626 13.0877 7.0207 12.9575 7.02813 12.8249L7.47313 4.93594C7.47955 4.80771 7.53505 4.68687 7.62813 4.59844C7.72121 4.51001 7.84474 4.46078 7.97313 4.46094H21.9081C22.0367 4.46079 22.1604 4.51016 22.2535 4.5988C22.3466 4.68744 22.402 4.80853 22.4081 4.93694L23.0311 16.6159C23.035 16.6819 23.0258 16.7481 23.004 16.8105C22.9822 16.8729 22.9482 16.9304 22.904 16.9796C22.8599 17.0288 22.8064 17.0687 22.7466 17.0971C22.6869 17.1255 22.6222 17.1417 22.5561 17.1449H22.5251" fill="black"/>
<path d="M19.6045 6.65378C19.4719 6.65378 19.3447 6.6011 19.251 6.50733C19.1572 6.41356 19.1045 6.28639 19.1045 6.15378C19.0876 5.06046 18.6414 4.01766 17.8622 3.25049C17.0831 2.48331 16.0335 2.05331 14.94 2.05331C13.8466 2.05331 12.797 2.48331 12.0178 3.25049C11.2387 4.01766 10.7925 5.06046 10.7755 6.15378C10.7755 6.28718 10.7225 6.41512 10.6282 6.50945C10.5339 6.60379 10.4059 6.65678 10.2725 6.65678C10.1391 6.65678 10.0112 6.60379 9.91686 6.50945C9.82253 6.41512 9.76953 6.28718 9.76953 6.15378C9.78843 4.79493 10.3415 3.49814 11.3091 2.5439C12.2767 1.58966 13.5811 1.05469 14.94 1.05469C16.299 1.05469 17.6034 1.58966 18.571 2.5439C19.5386 3.49814 20.0916 4.79493 20.1105 6.15378C20.1105 6.28639 20.0579 6.41356 19.9641 6.50733C19.8703 6.6011 19.7431 6.65378 19.6105 6.65378" fill="black"/>
<path d="M27.0049 28.7309H20.3409C20.2075 28.7309 20.0796 28.6779 19.9852 28.5836C19.8909 28.4893 19.8379 28.3613 19.8379 28.2279C19.8379 28.0945 19.8909 27.9666 19.9852 27.8723C20.0796 27.7779 20.2075 27.7249 20.3409 27.7249H26.4599L25.7189 18.4669H19.3819C19.2485 18.4669 19.1206 18.4139 19.0262 18.3196C18.9319 18.2253 18.8789 18.0973 18.8789 17.9639C18.8789 17.8305 18.9319 17.7026 19.0262 17.6083C19.1206 17.5139 19.2485 17.4609 19.3819 17.4609H26.1819C26.3083 17.4606 26.4302 17.5082 26.523 17.5941C26.6158 17.68 26.6725 17.7978 26.6819 17.9239L27.5029 28.1879C27.5089 28.2571 27.5004 28.3268 27.4779 28.3925C27.4555 28.4582 27.4196 28.5185 27.3726 28.5696C27.3255 28.6207 27.2684 28.6614 27.2047 28.6892C27.1411 28.717 27.0723 28.7312 27.0029 28.7309" fill="black"/>
<path d="M24.2783 19.9681C24.1457 19.9681 24.0186 19.9154 23.9248 19.8217C23.831 19.7279 23.7783 19.6007 23.7783 19.4681C23.7783 18.5571 23.4164 17.6834 22.7723 17.0392C22.1281 16.395 21.2544 16.0331 20.3433 16.0331C19.4323 16.0331 18.5586 16.395 17.9144 17.0392C17.2702 17.6834 16.9083 18.5571 16.9083 19.4681C16.9083 19.6015 16.8553 19.7295 16.761 19.8238C16.6667 19.9181 16.5387 19.9711 16.4053 19.9711C16.2719 19.9711 16.144 19.9181 16.0497 19.8238C15.9553 19.7295 15.9023 19.6015 15.9023 19.4681C15.9198 18.302 16.3954 17.1895 17.2262 16.371C18.0571 15.5525 19.1766 15.0937 20.3428 15.0938C21.5091 15.0937 22.6286 15.5525 23.4595 16.371C24.2903 17.1895 24.7658 18.302 24.7833 19.4681C24.7833 19.6007 24.7307 19.7279 24.6369 19.8217C24.5431 19.9154 24.416 19.9681 24.2833 19.9681" fill="black"/>
<path d="M18.8644 29.0315H0.564353C0.494911 29.0318 0.426178 29.0175 0.362531 28.9898C0.298885 28.962 0.241722 28.9213 0.194683 28.8702C0.147645 28.8191 0.111763 28.7588 0.0893236 28.6931C0.0668845 28.6274 0.0583803 28.5577 0.0643528 28.4885L1.19135 14.4005C1.20071 14.2744 1.25749 14.1565 1.35026 14.0706C1.44304 13.9847 1.56491 13.9372 1.69135 13.9375H17.7314C17.8578 13.9372 17.9797 13.9847 18.0724 14.0706C18.1652 14.1565 18.222 14.2744 18.2314 14.4005L19.3644 28.4885C19.3703 28.5577 19.3618 28.6274 19.3394 28.6931C19.3169 28.7588 19.2811 28.8191 19.234 28.8702C19.187 28.9213 19.1298 28.962 19.0662 28.9898C19.0025 29.0175 18.9338 29.0318 18.8644 29.0315ZM1.11135 28.0255H18.3114L17.2644 14.9435H2.15835L1.11135 28.0255Z" fill="black"/>
<path d="M15.1185 16.9952C14.9859 16.9952 14.8587 16.9425 14.7649 16.8488C14.6712 16.755 14.6185 16.6278 14.6185 16.4952C14.6185 15.1956 14.1023 13.9493 13.1833 13.0304C12.2644 12.1114 11.0181 11.5952 9.7185 11.5952C8.41894 11.5952 7.1726 12.1114 6.25368 13.0304C5.33475 13.9493 4.8185 15.1956 4.8185 16.4952C4.8185 16.6286 4.76551 16.7565 4.67117 16.8509C4.57684 16.9452 4.4489 16.9982 4.3155 16.9982C4.1821 16.9982 4.05416 16.9452 3.95983 16.8509C3.86549 16.7565 3.8125 16.6286 3.8125 16.4952C3.83271 14.9417 4.464 13.4588 5.56968 12.3674C6.67535 11.276 8.16641 10.6641 9.72 10.6641C11.2736 10.6641 12.7646 11.276 13.8703 12.3674C14.976 13.4588 15.6073 14.9417 15.6275 16.4952C15.6275 16.6278 15.5748 16.755 15.4811 16.8488C15.3873 16.9425 15.2601 16.9952 15.1275 16.9952" fill="black"/>
<path d="M4.31125 17.4194C4.15698 17.4194 4.00618 17.3736 3.87791 17.2879C3.74964 17.2022 3.64966 17.0804 3.59062 16.9379C3.53159 16.7953 3.51614 16.6385 3.54624 16.4872C3.57633 16.3359 3.65062 16.1969 3.75971 16.0878C3.86879 15.9787 4.00777 15.9045 4.15908 15.8744C4.31039 15.8443 4.46722 15.8597 4.60974 15.9187C4.75227 15.9778 4.87409 16.0778 4.9598 16.206C5.0455 16.3343 5.09125 16.4851 5.09125 16.6394C5.09205 16.742 5.07242 16.8438 5.0335 16.9388C4.99459 17.0338 4.93716 17.1201 4.86457 17.1927C4.79199 17.2653 4.70568 17.3227 4.61069 17.3616C4.51569 17.4005 4.4139 17.4202 4.31125 17.4194ZM4.31125 16.4134C4.25897 16.4135 4.20834 16.4317 4.16798 16.4649C4.12762 16.4981 4.10003 16.5443 4.08991 16.5956C4.07979 16.6469 4.08777 16.7001 4.11249 16.7462C4.1372 16.7923 4.17713 16.8284 4.22546 16.8483C4.27379 16.8682 4.32754 16.8708 4.37755 16.8556C4.42755 16.8403 4.47073 16.8082 4.49972 16.7647C4.52871 16.7212 4.54171 16.669 4.53652 16.6169C4.53133 16.5649 4.50826 16.5163 4.47125 16.4794C4.45023 16.4584 4.42527 16.4418 4.39782 16.4305C4.37036 16.4191 4.34095 16.4133 4.31125 16.4134Z" fill="black"/>
<path d="M15.1198 17.4194C14.9656 17.4194 14.8148 17.3736 14.6865 17.2879C14.5582 17.2022 14.4583 17.0804 14.3992 16.9379C14.3402 16.7953 14.3247 16.6385 14.3548 16.4872C14.3849 16.3359 14.4592 16.1969 14.5683 16.0878C14.6774 15.9787 14.8164 15.9045 14.9677 15.8744C15.119 15.8443 15.2758 15.8597 15.4183 15.9187C15.5609 15.9778 15.6827 16.0778 15.7684 16.206C15.8541 16.3343 15.8998 16.4851 15.8998 16.6394C15.9006 16.742 15.881 16.8438 15.8421 16.9388C15.8032 17.0338 15.7458 17.1201 15.6732 17.1927C15.6006 17.2653 15.5143 17.3227 15.4193 17.3616C15.3243 17.4005 15.2225 17.4202 15.1198 17.4194ZM15.1198 16.4134C15.0676 16.4132 15.0169 16.4312 14.9764 16.4642C14.9359 16.4973 14.9081 16.5433 14.8977 16.5946C14.8874 16.6458 14.8951 16.699 14.9195 16.7452C14.944 16.7914 14.9837 16.8276 15.0319 16.8478C15.0801 16.868 15.1339 16.8709 15.1839 16.8559C15.234 16.841 15.2774 16.8091 15.3066 16.7658C15.3358 16.7224 15.3491 16.6703 15.3442 16.6183C15.3394 16.5663 15.3166 16.5175 15.2798 16.4804C15.2589 16.4592 15.234 16.4424 15.2065 16.4309C15.1791 16.4194 15.1496 16.4135 15.1198 16.4134Z" fill="black"/>
<path d="M24.2825 20.3416C24.1874 20.3418 24.0933 20.3233 24.0055 20.2871C23.9176 20.2509 23.8378 20.1977 23.7705 20.1306C23.6518 20.0115 23.5781 19.8549 23.562 19.6876C23.5458 19.5202 23.5881 19.3524 23.6818 19.2128C23.7754 19.0731 23.9145 18.9702 24.0755 18.9216C24.2365 18.8731 24.4093 18.8818 24.5646 18.9463C24.7198 19.0108 24.8479 19.1271 24.9271 19.2755C25.0062 19.4238 25.0314 19.595 24.9985 19.7599C24.9656 19.9248 24.8766 20.0732 24.7466 20.1798C24.6165 20.2864 24.4536 20.3447 24.2855 20.3446M24.2855 19.3386C24.2208 19.3389 24.1582 19.3615 24.1083 19.4026C24.0584 19.4438 24.0243 19.501 24.0118 19.5644C23.9993 19.6279 24.0091 19.6937 24.0396 19.7507C24.0701 19.8077 24.1194 19.8524 24.1792 19.8772C24.2389 19.902 24.3054 19.9054 24.3673 19.8867C24.4292 19.868 24.4828 19.8285 24.5189 19.7748C24.5549 19.7212 24.5713 19.6567 24.5652 19.5923C24.5592 19.5279 24.531 19.4676 24.4855 19.4216L24.1285 19.7766L24.4835 19.4196C24.4302 19.3672 24.3582 19.338 24.2835 19.3386" fill="black"/>
<path d="M10.2722 7.09944C10.1769 7.09969 10.0825 7.08109 9.99447 7.04471C9.90642 7.00832 9.82645 6.95487 9.75916 6.88744C9.64047 6.76858 9.56666 6.61224 9.55032 6.44507C9.53398 6.27789 9.57611 6.11022 9.66954 5.97063C9.76297 5.83103 9.90191 5.72816 10.0627 5.67953C10.2235 5.6309 10.3961 5.63952 10.5513 5.70394C10.7064 5.76835 10.8344 5.88456 10.9135 6.03277C10.9925 6.18098 11.0177 6.35201 10.9848 6.51673C10.9519 6.68144 10.8629 6.82965 10.7329 6.93608C10.603 7.04252 10.4401 7.1006 10.2722 7.10044M10.2722 6.09444C10.2075 6.0949 10.1449 6.11775 10.0952 6.15911C10.0454 6.20046 10.0115 6.25777 9.99926 6.32129C9.98698 6.3848 9.99708 6.45061 10.0278 6.50753C10.0586 6.56445 10.1081 6.60896 10.168 6.6335C10.2278 6.65804 10.2943 6.6611 10.3562 6.64215C10.418 6.62321 10.4714 6.58342 10.5073 6.52957C10.5431 6.47571 10.5592 6.41111 10.5528 6.34673C10.5464 6.28236 10.5179 6.22218 10.4722 6.17644L10.1162 6.53244L10.4712 6.17644C10.4449 6.15024 10.4137 6.12951 10.3794 6.11544C10.345 6.10136 10.3083 6.09423 10.2712 6.09444" fill="black"/>
<path d="M19.6071 7.09844C19.5121 7.09864 19.4179 7.08011 19.3301 7.0439C19.2422 7.00769 19.1624 6.95453 19.0951 6.88744C18.9764 6.76858 18.9026 6.61224 18.8863 6.44507C18.8699 6.27789 18.912 6.11022 19.0055 5.97063C19.0989 5.83103 19.2378 5.72816 19.3986 5.67953C19.5594 5.6309 19.7321 5.63952 19.8872 5.70394C20.0423 5.76835 20.1703 5.88456 20.2494 6.03277C20.3284 6.18098 20.3537 6.35201 20.3207 6.51673C20.2878 6.68144 20.1988 6.82965 20.0688 6.93608C19.9389 7.04252 19.7761 7.1006 19.6081 7.10044M19.6081 6.09444C19.5434 6.0949 19.4809 6.11775 19.4311 6.15911C19.3814 6.20046 19.3475 6.25777 19.3352 6.32129C19.3229 6.3848 19.333 6.45061 19.3638 6.50753C19.3945 6.56445 19.444 6.60896 19.5039 6.6335C19.5637 6.65804 19.6303 6.6611 19.6921 6.64215C19.754 6.62321 19.8074 6.58342 19.8432 6.52957C19.879 6.47571 19.8951 6.41111 19.8887 6.34673C19.8823 6.28236 19.8538 6.22218 19.8081 6.17644L19.4521 6.53244L19.8071 6.17544C19.7538 6.12299 19.6829 6.09386 19.6081 6.09444Z" fill="black"/>
</g>
</svg>
