<svg width="30" height="30" viewBox="0 0 30 30" fill="none" xmlns="http://www.w3.org/2000/svg">
<path d="M29.5308 14.7498C29.531 12.8414 29.1553 10.9518 28.4252 9.18867C27.695 7.42557 26.6247 5.82358 25.2753 4.4742C23.9259 3.12482 22.3239 2.05448 20.5608 1.32432C18.7977 0.594164 16.9081 0.218487 14.9998 0.21875C13.0914 0.218487 11.2018 0.594164 9.43867 1.32432C7.67557 2.05448 6.07358 3.12482 4.7242 4.4742C3.37482 5.82358 2.30448 7.42557 1.57432 9.18867C0.844164 10.9518 0.468487 12.8414 0.46875 14.7498C0.469157 18.2102 1.70404 21.5569 3.95136 24.1883C6.19869 26.8196 9.31102 28.5629 12.7288 29.1047V18.9508H9.03775V14.7508H12.7288V11.5507C12.7288 7.90875 14.8967 5.89775 18.2167 5.89775C19.3066 5.91302 20.3938 6.00794 21.4697 6.18175V9.75575H19.6378C19.3256 9.7143 19.008 9.74361 18.7087 9.84149C18.4094 9.93937 18.1359 10.1033 17.9085 10.3212C17.6811 10.5391 17.5056 10.8053 17.3951 11.1002C17.2845 11.3951 17.2417 11.7111 17.2698 12.0247V14.7528H21.2997L20.6548 18.9528H17.2708V29.1047C20.6885 28.5629 23.8008 26.8196 26.0481 24.1883C28.2955 21.5569 29.5303 18.2102 29.5308 14.7498Z" fill="#FDE2E1"/>
</svg>
