<?xml version="1.0" encoding="UTF-8"?> <svg xmlns="http://www.w3.org/2000/svg" width="134" height="134" viewBox="0 0 134 134"><defs><clipPath id="txqinsnfqa"><path data-name="Rectangle 614" transform="translate(-.256 -.128)" style="fill:#00ac44" d="M0 0h92v46H0z"></path></clipPath></defs><g data-name="Group 7728" transform="translate(-433 -1693)"><rect data-name="Rectangle 615" width="134" height="134" rx="3" transform="translate(433 1693)" style="fill:#8eee9c"></rect><g data-name="Group 7709" style="clip-path:url(#txqinsnfqa)" transform="translate(454.256 1737.128)"><path data-name="Path 224" d="M7.624 20.436H3.812C1.6 20.436 0 18.031 0 14.718S1.6 9 3.812 9h3.812a1.906 1.906 0 0 1 0 3.812H4.2a4.155 4.155 0 0 0-.387 1.906 4.155 4.155 0 0 0 .387 1.906h3.424a1.906 1.906 0 0 1 0 3.812" transform="translate(0 8.154)" style="fill:#00ac44"></path><path data-name="Path 225" d="M51.778 45.744H40.342C32.611 45.744 27 36.125 27 22.872S32.611 0 40.342 0h11.436a1.906 1.906 0 0 1 0 3.812H40.342c-5.434 0-9.53 8.194-9.53 19.06s4.1 19.06 9.53 19.06h11.436a1.906 1.906 0 0 1 0 3.812" transform="translate(24.462)" style="fill:#00ac44"></path><path data-name="Path 226" d="M27.778 41.932c-3.747 0-7.624-7.128-7.624-19.06s3.877-19.06 7.624-19.06c3.328 0 6.751 5.634 7.477 15.25h3.814C38.263 7.672 33.854 0 27.778 0H16.342C8.611 0 3 9.62 3 22.872s5.611 22.872 13.342 22.872h11.436c6.076 0 10.485-7.668 11.291-19.058h-3.814c-.726 9.614-4.149 15.246-7.477 15.246M6.812 22.872c0-10.866 4.1-19.06 9.53-19.06h4.773c-2.97 3.957-4.773 10.727-4.773 19.06s1.8 15.1 4.773 19.06h-4.773c-5.434 0-9.53-8.194-9.53-19.06" transform="translate(2.718)" style="fill:#00ac44"></path><path data-name="Path 227" d="M52.913 26.686c-.726 9.614-4.149 15.246-7.477 15.246-3.747 0-7.624-7.128-7.624-19.06s3.877-19.06 7.624-19.06c3.328 0 6.751 5.634 7.477 15.25h3.814C55.921 7.672 51.512 0 45.436 0 38.7 0 34 9.406 34 22.872s4.7 22.872 11.436 22.872c6.076 0 10.485-7.668 11.291-19.058z" transform="translate(30.804)" style="fill:#00ac44"></path><path data-name="Path 228" d="M39.778 20.436H18.812C16.6 20.436 15 18.031 15 14.718S16.6 9 18.812 9h19.06a1.906 1.906 0 1 1 0 3.812H19.2a4.184 4.184 0 0 0-.385 1.9 4.155 4.155 0 0 0 .387 1.906h20.576a1.906 1.906 0 0 1 0 3.812" transform="translate(13.59 8.154)" style="fill:#00ac44"></path><path data-name="Path 229" d="M52.342 20.436h-9.53C40.6 20.436 39 18.031 39 14.718S40.6 9 42.812 9h9.53c2.209 0 3.812 2.405 3.812 5.716s-1.6 5.718-3.812 5.718m-9.142-3.81h8.756a4.142 4.142 0 0 0 .387-1.906 4.152 4.152 0 0 0-.387-1.9H43.2a4.155 4.155 0 0 0-.387 1.906 4.155 4.155 0 0 0 .387 1.906" transform="translate(35.334 8.154)" style="fill:#00ac44"></path></g></g></svg> 