<?xml version="1.0" encoding="UTF-8"?> <svg xmlns="http://www.w3.org/2000/svg" width="134" height="134" viewBox="0 0 134 134"><defs><clipPath id="yptvzzozxa"><path data-name="Rectangle 617" style="fill:#00ac44" d="M0 0h78v70.698H0z"></path></clipPath></defs><g data-name="Group 7727" transform="translate(-586 -1693)"><rect data-name="Rectangle 616" width="134" height="134" rx="3" transform="translate(586 1693)" style="fill:#8eee9c"></rect><g data-name="Group 7711"><g data-name="Group 7710" transform="translate(614 1724.651)" style="clip-path:url(#yptvzzozxa)"><path data-name="Path 230" d="M45.059 48.007a9.936 9.936 0 0 1-3.925-.745L4.669 31.407a6.562 6.562 0 0 1-3.409-8.58l8.1-18.894A6.5 6.5 0 0 1 17.925.542l58.21 25.469a1.95 1.95 0 0 1 .3 3.409L50.989 46.383a10.944 10.944 0 0 1-5.93 1.624M15.332 3.9a2.589 2.589 0 0 0-2.387 1.568l-8.1 18.894a2.654 2.654 0 0 0 1.377 3.469l36.464 15.855a7.825 7.825 0 0 0 6.141-.548L71.3 28.154 16.361 4.115a2.564 2.564 0 0 0-1.03-.215" transform="translate(.698)" style="fill:#00ac44"></path><path data-name="Path 231" d="M38.7 34.754a1.931 1.931 0 0 1-.723-.138l-9.75-3.9a1.951 1.951 0 1 1 1.447-3.623l7.9 3.159 5.152-13.734a1.951 1.951 0 1 1 3.652 1.373l-5.85 15.6a1.952 1.952 0 0 1-1.828 1.263" transform="translate(25.65 14.493)" style="fill:#00ac44"></path><path data-name="Path 232" d="m29.387 21.953-7.309 18.273H3.9v-3.9h13.65a1.947 1.947 0 0 0 1.693-.983l7.8-13.65-3.385-1.934-7.239 12.667H3.9v-5.85a1.95 1.95 0 1 0-3.9 0v23.4a1.95 1.95 0 1 0 3.9 0v-5.85h19.5a1.949 1.949 0 0 0 1.81-1.226l7.8-19.5c.4-1-3.219-2.449-3.621-1.447" transform="translate(0 18.771)" style="fill:#00ac44"></path></g></g></g></svg> 