<?xml version="1.0" encoding="UTF-8"?> <svg xmlns="http://www.w3.org/2000/svg" width="270.619" height="29.204" viewBox="0 0 270.619 29.204"><path d="m270.413.288.121-.259h-23.717q-10.487 0-17.871 3.791a22.866 22.866 0 0 0-10.6 10.632 11.677 11.677 0 0 0-1.178 7.911 7.37 7.37 0 0 0 1.875 3.252 8.709 8.709 0 0 0 3.368 2.113Q226.278 29.2 235.3 29.2h21.428l2.136-4.631h-12.047q-8.729 0-11.617-1.987c-2.122-1.428-1.883-4.743-.226-8.228 2.874-6.065 8.89-9.844 17.211-9.844h9.333l-2.148 4.558h7.112l4.137-8.78zm-83.086 17.238 14.43-12.407 3 12.407zm-122.71.047L78.668 5.695 81.2 17.573zM200.519 0h-8.788l-33.815 27.975L171.128.029h-14.49l-17.51 12.119-9.014 6.541h-.386l4.244-9.527-5.2-9.133h-14.551l-13.239 28-7.631-28H77.384L42.125 29.2h8.841l9.008-7.64h22.2l1.77 7.64h23.591l8.529-18.037a30.92 30.92 0 0 0 1.244-3.109 7.464 7.464 0 0 0 .852 2.991l7.5 15.045h1.264l21.462-14.987a43.842 43.842 0 0 0 3.652-3.05c-.832 1.358-1.411 2.392-1.75 3.109L141.763 29.2h31.993l8.908-7.64h23.058l1.85 7.64h8.111L207.785 0zM46.083 22.362a23.481 23.481 0 0 0 6.307-7.911q3.233-6.841-.552-10.632T37.548.029h-23.7L11.709 4.6h16.319c8.322 0 10.737 3.667 7.864 9.733-1.657 3.526-3.127 6.741-6.593 8.181-3.167 1.316-6.446 1.7-12.268 1.7H9.48L15.115 12.4H7.983L0 29.2h21.482a54.823 54.823 0 0 0 14.277-1.475 28.253 28.253 0 0 0 10.324-5.363z" style="fill:#fff"></path></svg> 