<?xml version="1.0" encoding="UTF-8"?> <svg xmlns="http://www.w3.org/2000/svg" width="136" height="136" viewBox="0 0 136 136" fill="none"><rect width="136" height="136" rx="5" fill="#8EEE9C"></rect><path fill-rule="evenodd" clip-rule="evenodd" d="M72.504 23.3427C70.7376 24.076 70.8225 22.9459 70.8465 45.3684C70.8582 56.3387 70.8207 65.4828 70.7632 65.6888C70.6738 66.0091 69.9569 66.0868 65.7941 66.2276C57.8549 66.4956 52.0721 67.2438 46.8507 68.6787C41.5872 70.1253 38.8411 71.1406 34.6492 73.1904C29.6825 75.619 24.6805 80.047 22.8494 83.6366C22.1128 85.0801 21.1951 88.1439 21.0278 89.7174C20.8568 91.3262 21.4924 94.3848 22.4458 96.5407C25.1062 102.556 34.2423 108.817 44.5043 111.657C45.5367 111.943 46.8566 112.331 47.4373 112.52C48.0181 112.709 49.338 113.002 50.3704 113.171C60.2879 114.789 66.717 115.259 71.5898 114.719C72.6957 114.597 74.8146 114.377 76.2987 114.231C77.7828 114.084 79.4195 113.866 79.9357 113.746C80.4519 113.626 81.6662 113.43 82.6341 113.311C85.3879 112.971 92.4775 110.829 96.0089 109.269C101.265 106.948 104.244 105.021 107.13 102.076C110.474 98.6628 111.411 97.0653 112.445 93.0116L112.952 91.026L112.427 88.3771C111.645 84.4245 110.43 82.1417 107.634 79.3736C103.94 75.7155 99.4774 72.8061 95.3049 71.3365C94.208 70.9501 92.9409 70.4763 92.4892 70.2837C91.5818 69.8963 84.7701 68.0839 83.1034 67.7863C82.5226 67.6826 80.9916 67.4259 79.701 67.2159C78.4105 67.0059 77.1171 66.7804 76.8266 66.7149L76.2987 66.596V60.5189V54.4416L77.0613 53.9925C77.4808 53.7454 78.299 53.401 78.8798 53.2271C79.4605 53.0532 80.0697 52.8099 80.2332 52.6862C80.397 52.5628 80.9249 52.3781 81.4064 52.2763C81.8882 52.1742 82.9685 51.8293 83.8073 51.51C85.2377 50.9651 85.7295 50.7861 87.7963 50.0589C88.6283 49.7661 89.7767 49.3515 92.9585 48.1956C93.9264 47.8439 95.2463 47.3687 95.8915 47.1395C96.5368 46.91 97.8039 46.4529 98.7073 46.1232C102.175 44.858 105.843 43.5325 108.226 42.6835C111.273 41.5976 111.764 41.2844 112.454 39.984L112.999 38.9567L112.54 38.0871C111.977 37.0185 110.97 36.3641 108.68 35.5787C107.151 35.0543 102.995 33.5336 99.1766 32.1015C97.9674 31.648 94.0787 30.2162 89.5561 28.5589C88.1365 28.0386 86.2359 27.3551 85.3325 27.04C84.4291 26.7246 83.3204 26.3168 82.8687 26.1336C82.4171 25.9503 80.9916 25.4099 79.701 24.9327C73.6852 22.7082 73.9121 22.7582 72.504 23.3427ZM78.2319 30.3229C79.04 30.6294 80.4402 31.1484 81.3436 31.4762C83.1325 32.1255 86.9943 33.5394 90.1427 34.6976C91.2397 35.1015 92.6124 35.5769 93.1931 35.7545C93.7739 35.9321 95.5161 36.5537 97.0648 37.1361C98.6134 37.7182 100.102 38.1988 100.374 38.2037C100.645 38.2089 101.202 38.3299 101.613 38.4731C102.213 38.6824 102.306 38.7971 102.089 39.0597C101.94 39.2392 101.624 39.3861 101.388 39.3861C100.934 39.3861 94.8849 41.5181 89.3215 43.639C88.6762 43.8852 85.6669 45.0187 82.6341 46.1582C79.6013 47.2976 76.9489 48.3052 76.7396 48.3972C76.508 48.499 76.3245 48.4443 76.2703 48.2573C76.0652 47.5501 76.321 29.7656 76.5364 29.7656C76.661 29.7656 77.424 30.0165 78.2319 30.3229ZM70.64 71.8518C70.8261 72.0759 70.8946 74.3212 70.8699 79.3808L70.8345 86.5908L71.5192 87.2755C72.5444 88.3006 73.4743 88.4884 74.6484 87.9074C76.2764 87.1021 76.2987 86.9838 76.2987 79.1593V72.215L77.0613 72.3417C77.4808 72.4112 79.1965 72.6806 80.8743 72.9403C84.1011 73.4399 86.0914 73.9702 91.4685 75.7631C96.0879 77.3035 100.136 79.7117 103.473 82.904C105.233 84.5883 106.482 86.5373 106.806 88.1075C106.935 88.7347 107.102 89.5182 107.175 89.8486C107.378 90.7571 106.62 94.0415 105.938 95.2074C104.839 97.0865 101.308 100.272 98.238 102.154C96.6893 103.103 94.9999 104.035 94.4837 104.225C93.9675 104.415 92.4364 104.994 91.0813 105.511C86.7308 107.172 83.9366 107.811 76.034 108.951C72.52 109.457 60.8095 109.454 57.601 108.945C47.5739 107.355 46.0727 106.971 39.8879 104.414C33.6456 101.832 27.7384 96.6092 27.0002 93.0182C26.3683 89.9448 26.7677 87.7244 28.3825 85.3315C30.072 82.8278 32.3544 80.7946 35.4873 79.0014C37.885 77.629 43.8259 75.1181 45.6775 74.6945C46.0647 74.6061 47.0678 74.328 47.9066 74.0767C51.5669 72.9807 58.1829 72.1195 65.6223 71.7711C67.5582 71.6805 69.4194 71.5897 69.7587 71.5695C70.0977 71.5491 70.4943 71.676 70.64 71.8518ZM53.1861 82.7466C52.4271 82.9029 50.4234 83.7809 49.7179 84.2662C48.7 84.9661 47.672 87.2206 47.672 88.7528C47.672 93.3249 52.2307 96.1411 56.302 94.0839C57.0402 93.7109 57.822 93.2092 58.0391 92.9687C58.7198 92.2145 59.6342 89.9896 59.6365 89.0811C59.6396 87.9463 58.8284 85.7993 58.0449 84.8683C57.1669 83.8248 54.2132 82.5349 53.1861 82.7466Z" fill="#00AC44"></path></svg> 