<?xml version="1.0" encoding="UTF-8"?> <svg xmlns="http://www.w3.org/2000/svg" width="136" height="136" viewBox="0 0 136 136" fill="none"><rect width="136" height="136" rx="5" fill="#8EEE9C"></rect><path fill-rule="evenodd" clip-rule="evenodd" d="M88.0244 29.3916C87.7147 29.5954 86.549 30.6587 85.434 31.7551C84.319 32.8512 83.0013 34.0202 82.5057 34.3528C82.0102 34.6854 80.4645 36.0547 79.0706 37.3956C71.1504 45.0163 70.412 45.7824 69.6315 47.189C69.197 47.9722 68.7483 48.6712 68.6345 48.7424C68.5208 48.8136 68.4275 49.0996 68.4275 49.3782C68.4275 49.6565 68.2894 50.0868 68.1205 50.3341C67.4488 51.3189 66.9762 56.315 67.4441 57.4848C67.7813 58.328 67.8626 61.3918 67.5646 62.0228C67.4616 62.2407 67.2082 62.7608 67.0015 63.1787C66.7947 63.5967 66.6255 64.0399 66.6255 64.1636C66.6255 64.7054 64.0371 67.7799 63.581 67.7799C63.4436 67.7799 63.0332 68.097 62.6694 68.4846C62.3056 68.8722 61.7038 69.3492 61.3321 69.5447C60.9604 69.7402 60.2113 70.2955 59.6673 70.7792C59.1233 71.2626 58.5611 71.6581 58.4178 71.6581C58.2745 71.6581 57.7567 72.0772 57.267 72.5894C56.7773 73.1018 56.0725 73.6803 55.7008 73.8753C55.0366 74.2237 54.6354 74.5378 52.2583 76.5714C51.6037 77.1315 50.9735 77.5895 50.8579 77.5895C50.7424 77.5895 50.1342 78.0515 49.5064 78.6161C48.8786 79.1808 48.2132 79.6427 48.0276 79.6427C47.842 79.6427 47.6274 79.8088 47.5503 80.0121C47.4733 80.2151 46.9444 80.6798 46.3747 81.0448C45.3818 81.6811 43.8476 82.8863 41.6978 84.7186C41.1458 85.1893 40.6025 85.5741 40.4903 85.5741C40.3779 85.5741 39.7812 86.0105 39.164 86.5437C37.2886 88.1639 35.6149 89.4524 35.3859 89.4524C35.2665 89.4524 34.9248 89.7154 34.6265 90.0368C34.3283 90.3585 33.7278 90.836 33.2921 91.0983C32.2103 91.7496 30.4688 93.4622 29.6512 94.6786C28.5398 96.3326 28.0618 97.9292 28.0512 100.023C28.0361 102.981 28.7263 104.486 31.3467 107.207C33.4226 109.363 34.9959 110.305 37.0955 110.647C37.8528 110.771 38.55 110.92 38.6448 110.98C38.8626 111.116 41.4109 110.538 42.7489 110.048C43.9168 109.621 45.4431 108.462 46.5781 107.139C47.0118 106.633 47.9306 105.604 48.62 104.851C49.3093 104.098 50.2396 102.969 50.6872 102.342C51.1348 101.714 52.0153 100.692 52.6437 100.069C53.2719 99.4463 53.7862 98.8436 53.7862 98.7293C53.7862 98.615 54.4052 97.8517 55.1616 97.0327C55.918 96.2137 56.7081 95.2583 56.9174 94.9097C57.1269 94.5609 57.9759 93.5441 58.8041 92.6501C59.6321 91.756 60.3888 90.8816 60.4849 90.7073C60.5813 90.533 61.4195 89.5459 62.3478 88.5141C63.2758 87.482 64.0858 86.507 64.1477 86.3468C64.2885 85.9834 66.8933 82.9064 69.0197 80.592C69.9027 79.6309 70.7818 78.5363 70.9733 78.1599C71.406 77.3083 73.456 75.2749 74.5093 74.6526C75.3002 74.1854 76.2347 73.7246 77.6142 73.1221C78.6262 72.6797 81.709 72.7089 83.3529 73.1759C84.5972 73.5295 84.8238 73.5279 86.9718 73.1494C90.9743 72.4445 94.0318 70.6509 97.2597 67.1142C98.1888 66.0961 100.129 64.0071 101.57 62.4722C103.012 60.9371 104.348 59.3733 104.539 58.9969C104.73 58.6205 106.009 57.1851 107.38 55.8069C108.752 54.4288 109.874 53.2272 109.874 53.1364C109.874 53.0459 110.127 52.5935 110.437 52.1313C110.747 51.6691 111 51.1353 111 50.945C111 50.3927 109.961 49.1651 109.236 48.861C108.663 48.6208 108.443 48.6484 107.646 49.0604C107.098 49.3437 106.475 49.9325 106.119 50.5038C105.788 51.0344 104.433 52.5978 103.109 53.978C101.784 55.3582 100.654 56.6366 100.597 56.8191C100.49 57.1661 96.4071 61.6998 93.3178 64.9016C91.643 66.6372 91.1358 66.9867 88.4636 68.2467C87.6507 68.6299 85.5576 68.9662 84.74 68.8448C84.2546 68.773 83.1984 68.6073 82.3931 68.4771C77.889 67.7482 73.4533 69.3558 69.588 73.1179C68.8017 73.8836 67.8984 74.9204 67.581 75.4223C67.2634 75.9242 66.3757 77.0021 65.608 77.8177C64.8406 78.6332 64.1221 79.4719 64.0112 79.6813C63.9004 79.8907 63.0242 80.8869 62.0642 81.8951C61.1041 82.9034 60.3185 83.8444 60.3185 83.9866C60.3185 84.1287 59.7312 84.8776 59.0136 85.651C58.2957 86.4241 57.4136 87.4676 57.053 87.9695C56.6926 88.4714 55.8247 89.498 55.1246 90.2508C54.4245 91.0036 53.7438 91.8231 53.6118 92.0715C53.3591 92.5481 51.1701 95.1052 48.4365 98.1179C47.5382 99.1075 46.8034 100.028 46.8034 100.163C46.8034 100.297 46.0578 101.202 45.1464 102.173C44.2351 103.144 43.3757 104.159 43.237 104.427C42.9063 105.067 41.2983 106.01 39.9522 106.353C39.1131 106.567 38.6108 106.565 37.6303 106.342C36.534 106.094 36.1587 105.843 34.595 104.314C32.5166 102.282 32.2535 101.6 32.5979 99.1377C32.843 97.3845 33.5046 96.3531 35.0005 95.3924C35.5379 95.0473 36.3607 94.4356 36.8293 94.0335C38.4225 92.6651 40.2402 91.2774 40.4389 91.2774C40.5482 91.2774 40.9351 90.9562 41.2989 90.5636C41.6627 90.1707 42.4718 89.5139 43.0964 89.1038C43.7213 88.6936 44.3727 88.1869 44.5443 87.9777C44.7158 87.7683 45.1343 87.4514 45.4744 87.2732C45.8145 87.0953 46.5529 86.5631 47.1154 86.0906C49.1748 84.3612 50.5759 83.2928 50.7847 83.2928C50.9025 83.2928 51.2967 82.9757 51.6605 82.5881C52.0243 82.2005 52.6261 81.7249 52.9978 81.5314C53.3695 81.338 54.1432 80.7569 54.7174 80.24C55.7024 79.3535 56.596 78.6561 59.8675 76.2208C60.6262 75.6561 61.6828 74.8093 62.2155 74.3387C62.7485 73.8683 63.2965 73.4832 63.4332 73.4832C63.5702 73.4832 64.2178 73.0185 64.8724 72.4507C65.5267 71.8829 66.5034 71.036 67.0422 70.5686C69.3193 68.5943 71.3042 65.1902 71.9299 62.1864C72.2622 60.592 72.2748 60.1086 72.0275 58.4222C71.8716 57.358 71.7326 55.6023 71.7189 54.5207C71.6946 52.6325 71.7324 52.4764 72.6622 50.6192C73.5083 48.9299 73.984 48.3409 76.4163 45.9704C80.1205 42.3602 84.7659 38.0825 85.3009 37.7889C86.0304 37.3881 90.92 32.4607 91.272 31.7713C91.5813 31.1656 91.566 31.0636 91.0488 30.293C90.1523 28.9566 89.1436 28.6561 88.0244 29.3916ZM26.1346 31.1316C25.414 31.9234 25.198 32.3656 25.0693 33.3118C24.8648 34.8182 25.139 38.406 25.5485 39.5813C25.7206 40.0757 25.8086 40.6494 25.7438 40.8559C25.6791 41.0626 25.7778 41.7385 25.9634 42.3579C26.149 42.9773 26.3017 43.7434 26.3031 44.0605C26.3044 44.3778 26.4411 44.8398 26.6067 45.087C26.7725 45.3346 27.2378 46.3479 27.6408 47.3389C28.7689 50.1123 30.6301 52.9122 33.5699 56.257C34.2821 57.0676 34.8651 57.8528 34.8651 58.0022C34.8651 58.1517 35.448 58.9084 36.1603 59.6838C37.9197 61.5994 40.1274 64.3164 40.2995 64.7782C40.377 64.9862 41.8467 66.5943 43.5656 68.3516C47.4864 72.3601 48.4293 72.9129 51.3465 72.9129C53.1032 72.9129 53.3578 72.8574 53.8806 72.3599C54.8149 71.4708 54.6252 69.8573 53.4715 68.8807C53.1325 68.5934 52.5946 68.4773 51.5787 68.4718C50.7984 68.4677 49.8819 68.3188 49.5424 68.1408C48.8453 67.7758 44.7212 63.5086 44.1409 62.5521C43.7402 61.8912 41.9116 59.6315 39.7643 57.1435C39.052 56.3182 38.4691 55.548 38.4691 55.4321C38.4691 55.3162 37.8861 54.5698 37.1739 53.7736C34.6146 50.9133 33.4967 49.3802 32.3878 47.2105C31.7681 45.998 31.2611 44.7978 31.2611 44.5436C31.2611 44.2893 31.1664 44.0219 31.0507 43.9496C30.7313 43.7495 30.1803 41.6128 30.019 39.9479C29.94 39.1324 29.7742 38.195 29.651 37.8649C29.5275 37.5345 29.4617 36.9186 29.5048 36.4961C29.5818 35.7403 29.8343 35.981 44.5606 50.8412C52.798 59.1538 59.7011 65.9549 59.9006 65.9549C60.1 65.9549 60.3951 65.794 60.5561 65.5976C60.7172 65.4012 61.1487 65.0832 61.5157 64.8911C61.8824 64.699 62.4219 64.2804 62.7142 63.9605L63.2463 63.3793L47.4884 47.4516C38.8216 38.6914 31.3057 31.2121 30.7862 30.8311C29.9753 30.2362 29.644 30.1383 28.4402 30.1383C27.0745 30.1383 27.0155 30.1639 26.1346 31.1316ZM85.6092 45.0202C76.4395 54.2971 76.3113 54.4395 76.3113 55.3454C76.3113 56.0129 76.4676 56.4347 76.8834 56.8889C77.6459 57.7216 78.6255 57.7114 79.9275 56.8566C80.4782 56.495 84.7046 52.3574 89.3196 47.6617C98.0372 38.7915 97.8924 38.9693 97.7395 37.3304C97.6642 36.5232 96.5853 35.6135 95.7034 35.6135C94.9551 35.6135 94.3472 36.1801 85.6092 45.0202ZM101.314 42.3946C101.004 42.5979 96.7722 46.7759 91.9093 51.6791C86.0627 57.5738 82.9891 60.8338 82.8362 61.3024C82.3681 62.7362 83.452 64.1691 84.931 64.0716C85.7255 64.0194 86.3674 63.4203 95.011 54.6638C104.226 45.3277 104.242 45.3102 104.242 44.3575C104.242 43.5332 104.128 43.3076 103.403 42.7022C102.458 41.9135 102.123 41.864 101.314 42.3946ZM76.3676 77.3502C75.9649 77.8414 75.6356 78.3216 75.6356 78.4172C75.6356 78.5128 75.3617 78.8805 75.0272 79.2344L74.4187 79.8777L75.6466 81.147C76.3219 81.8453 77.2292 82.6055 77.6628 82.8366C78.0964 83.0677 79.0087 83.8396 79.6901 84.5523C80.3715 85.2648 81.2837 86.0858 81.7173 86.3765C82.1509 86.6671 83.2916 87.6065 84.2521 88.4639C85.2126 89.3212 87.0177 90.8953 88.2638 91.9618C92.6418 95.7091 93.3329 96.4334 93.7354 97.6954C94.2023 99.1598 94.2091 100.782 93.7527 101.888C93.3331 102.905 91.4103 105.032 90.2149 105.8C88.0838 107.17 84.3746 106.303 82.9805 104.108C82.6823 103.638 81.8705 102.693 81.1767 102.007C80.483 101.322 79.9153 100.668 79.9153 100.555C79.9153 100.443 79.1044 99.4826 78.1133 98.4222C77.1222 97.3617 76.3113 96.3691 76.3113 96.2162C76.3113 96.0636 75.7421 95.3774 75.0465 94.6916C74.3509 94.0059 73.4849 93.034 73.1215 92.5321C72.7584 92.0302 71.8896 90.9767 71.1909 90.1908C70.4922 89.4049 69.7081 88.3783 69.4484 87.9095C69.1889 87.4407 68.8589 87.057 68.7152 87.057C68.3976 87.057 65.9498 90.244 65.9498 90.6576C65.9498 90.8198 66.464 91.4617 67.0922 92.0845C67.7207 92.7071 68.6012 93.7298 69.0488 94.3572C69.4963 94.9845 70.4518 96.1307 71.1722 96.9038C71.8926 97.6772 72.482 98.4291 72.482 98.5746C72.482 98.7202 73.2677 99.6938 74.2277 100.738C75.1878 101.783 76.7843 103.595 77.7754 104.765C81.2585 108.878 82.897 110.094 85.7719 110.699C87.32 111.025 87.5955 111.023 89.2633 110.677C91.4259 110.229 92.918 109.356 95.0072 107.317C97.5649 104.819 98.2226 103.38 98.3431 100.014C98.4362 97.4105 98.096 96.0937 96.8466 94.2223C96.1454 93.1723 92.9448 89.9111 92.6098 89.9052C92.5035 89.9036 91.6565 89.1722 90.7274 88.2804C89.7982 87.3885 88.7956 86.5248 88.4996 86.3607C88.2034 86.1969 87.2405 85.3554 86.3598 84.491C85.4788 83.6264 84.4035 82.7011 83.9698 82.4346C83.5362 82.1681 82.624 81.3704 81.9426 80.6618C81.2612 79.9532 80.1791 79.0295 79.5378 78.6093C78.8967 78.1888 78.1426 77.5309 77.8624 77.147C77.5822 76.763 77.2959 76.4507 77.2263 76.453C77.1567 76.4553 76.7704 76.8591 76.3676 77.3502Z" fill="#00AC44"></path></svg> 