<?xml version="1.0" encoding="UTF-8"?> <svg xmlns="http://www.w3.org/2000/svg" width="137" height="137" viewBox="0 0 137 137" fill="none"><rect width="136.216" height="136.216" rx="5" fill="#8EEE9C"></rect><path fill-rule="evenodd" clip-rule="evenodd" d="M39.9257 29.5392C36.0932 31.3227 32.1825 38.0444 29.4183 47.5983C25.5012 61.1385 24.8991 75.2525 27.8786 83.6989C30.2985 90.5593 34.6127 94.9155 40.1454 96.086L40.7578 96.2156V99.4385V102.662H37.0738C33.459 102.662 33.3793 102.672 32.8431 103.208C32.1464 103.904 32.1464 104.757 32.8431 105.454L33.3896 106H68.3683H103.347L103.893 105.454C104.59 104.757 104.59 103.904 103.893 103.208C103.367 102.682 103.236 102.662 100.331 102.662H97.3147V99.4385V96.2156L97.9271 96.0849C99.3365 95.7844 101.731 94.8016 102.749 94.1056C107.021 91.1853 110.004 86.0792 111.363 79.3589C112.053 75.9498 112.214 67.8698 111.689 63.0274C110.434 51.4524 106.845 39.871 102.612 33.7344C96.296 24.58 88.9585 28.9112 83.6458 44.9297L82.8257 47.4022L81.015 46.2112C75.7659 42.7594 68.902 41.7773 62.6611 43.5849C60.7099 44.15 58.0671 45.3944 56.3497 46.5564C55.8015 46.9274 55.2878 47.1585 55.2083 47.0699C55.1288 46.9813 54.6997 45.807 54.2548 44.4605C50.3789 32.7306 45.0321 27.1629 39.9257 29.5392ZM43.8136 32.8067C46.2175 34.2917 49.4344 40.1118 51.5468 46.7975C53.1255 51.7943 54.5016 58.6967 55.0219 64.2284C55.4098 68.3512 55.1811 76.5683 54.606 79.1808C53.2655 85.2689 50.2413 89.9893 46.4751 91.8726C44.0031 93.1088 44.0978 93.21 44.0978 89.326C44.0978 87.5001 44.173 85.9708 44.2648 85.9279C44.3565 85.8847 45.8096 84.4412 47.4934 82.7198C50.8372 79.3019 51.054 78.8806 50.0084 77.8354C49.0345 76.8617 48.4863 77.0756 46.1917 79.3248L44.1149 81.3604L44.0505 73.7836C43.9906 66.6957 43.959 66.1767 43.5622 65.7387C43.0419 65.1643 41.7491 65.1104 41.165 65.6388C40.7994 65.9695 40.7578 66.4138 40.7578 69.9788C40.7578 72.1633 40.6801 73.9505 40.5852 73.9505C40.4904 73.9505 39.666 73.1993 38.7538 72.2813C37.3292 70.8477 36.9867 70.612 36.3276 70.612C35.2989 70.612 34.7458 71.1506 34.7458 72.1519C34.7458 72.8869 35.0017 73.2105 37.7518 75.9536L40.7578 78.952V85.799V92.646H40.2309C39.9413 92.646 38.9958 92.2917 38.1301 91.8588C33.7167 89.6519 30.4475 83.5585 29.6169 75.9914C29.2703 72.8317 29.4468 65.1015 29.9512 61.3755C31.7189 48.3111 36.2731 36.1828 40.6073 32.9968C41.701 32.1929 42.7221 32.1324 43.8136 32.8067ZM97.4837 33.0104C101.79 36.1757 106.296 48.1896 108.124 61.3755C108.616 64.9275 108.797 72.8793 108.456 75.9825C107.783 82.1191 105.672 87.0238 102.359 90.1484C101.092 91.3438 98.7235 92.6456 97.8157 92.6458C97.3196 92.646 97.3147 92.6149 97.3147 89.4834V86.3209L100.655 82.9573C104.299 79.2874 104.511 78.8979 103.448 77.8354C102.477 76.8646 101.924 77.0773 99.6645 79.2921C98.5407 80.3938 97.5521 81.2952 97.4679 81.2952C97.3837 81.2952 97.3147 77.8728 97.3147 73.6899C97.3147 66.9252 97.274 66.0394 96.9462 65.6775C96.4243 65.1011 95.0567 65.1356 94.5103 65.7387C94.1046 66.1867 94.0834 66.7863 94.0253 79.4534L93.9645 92.6997L93.3179 92.5704C90.3424 91.9755 86.7555 88.3024 84.9764 84.0283C84.6596 83.2669 84.4001 82.4614 84.4001 82.2384C84.4001 82.0154 84.8588 81.3864 85.4195 80.8407C87.7252 78.5963 89.9561 74.4491 90.9218 70.612C91.6074 67.8869 91.6009 62.8527 90.9078 60.0904C90.0647 56.7299 88.5442 53.6387 86.4999 51.1301L85.5678 49.9864L86.3164 47.515C88.421 40.5672 91.4513 34.851 94.0133 32.9961C95.2457 32.1037 96.2557 32.1079 97.4837 33.0104ZM73.7122 46.6043C76.9117 47.4144 79.6527 48.9717 82.2548 51.4578C84.0748 53.1967 85.271 54.8917 86.4077 57.3429C87.7553 60.2487 88.0639 61.781 88.0487 65.493C88.0372 68.3314 87.9639 68.9561 87.4404 70.6781C87.1131 71.7549 86.5339 73.2572 86.1532 74.0166C83.3358 79.6357 77.6743 83.8008 71.8672 84.5259L70.5949 84.6849V75.4228C70.5949 66.4574 70.5807 66.1465 70.1496 65.7156C69.4865 65.0528 68.2948 65.122 67.7165 65.8569C67.2906 66.398 67.2549 66.736 67.2549 70.2354V74.0277L65.4992 72.3198C63.9806 70.8428 63.6368 70.612 62.9546 70.612C62.0909 70.612 61.243 71.4081 61.243 72.2189C61.243 72.4753 62.4745 73.9209 64.2489 75.7471L67.2549 78.8412V81.7661V84.6911L66.0859 84.538C64.3193 84.3067 61.0913 83.1607 59.4171 82.1708C58.5964 81.6856 57.8656 81.1924 57.793 81.0748C57.7204 80.9573 57.8173 80.0384 58.0081 79.0324C59.2258 72.6164 58.7863 63.0376 56.8611 54.0309C56.5472 52.5619 56.2773 51.239 56.2615 51.091C56.217 50.6714 58.7179 48.8918 60.6863 47.9426C64.8018 45.9577 69.3248 45.493 73.7122 46.6043ZM62.9441 87.2671C63.9067 87.5255 65.2703 87.8037 65.9746 87.8851L67.2549 88.0334V95.3475V102.662H55.6703H44.086L44.1474 99.4038L44.2091 96.1461L45.4337 95.839C49.5898 94.7969 52.9707 91.7333 55.4804 86.7356L56.6042 84.4975L58.8992 85.6475C60.1615 86.28 61.9818 87.0087 62.9441 87.2671ZM82.1412 85.8631C83.1902 88.1747 83.6803 88.9904 85.0672 90.7353C87.1385 93.3405 90.0004 95.2561 92.7501 95.8773L93.8634 96.129L93.9251 99.3951L93.9865 102.662H82.2877H70.5889L70.6475 95.3876L70.7062 88.1135L72.4876 87.819C74.8532 87.4282 78.1041 86.2996 79.799 85.2809C80.5538 84.8273 81.2539 84.4734 81.3545 84.4946C81.4552 84.5157 81.8092 85.1315 82.1412 85.8631Z" fill="#00AC44"></path></svg> 