<?xml version="1.0" encoding="UTF-8"?> <svg xmlns="http://www.w3.org/2000/svg" width="137" height="136" viewBox="0 0 137 136" fill="none"><rect width="137" height="136" rx="5" fill="#8EEE9C"></rect><path fill-rule="evenodd" clip-rule="evenodd" d="M56.5268 23.5271C55.307 24.0449 54.5376 24.8888 54.2657 26.0045C54.0389 26.935 52.7965 28.9144 51.5047 30.4031C49.0721 33.2059 45.7107 39.3024 45.7107 40.9113C45.7107 41.6499 44.8819 41.831 41.5062 41.831C37.0672 41.831 35 42.5046 35 43.9518C35 45.696 41.599 62.6009 42.5654 63.3335C43.1116 63.7467 44.8456 64.0854 46.4194 64.0854C48.3117 64.0854 49.281 64.3398 49.281 64.8372C49.281 65.251 50.2182 72.7616 51.3636 81.528C53.551 98.2687 53.792 101.376 52.9042 101.376C52.1134 101.376 49.876 106.316 49.876 108.062C49.876 110.98 50.0236 111 71.0768 111C88.4353 111 90.9654 110.882 91.8044 110.035C92.3959 109.436 92.6202 108.578 92.3947 107.779C92.1936 107.069 91.8859 105.948 91.7104 105.286C91.5343 104.624 90.7381 103.203 89.9408 102.127L88.4906 100.171L90.7024 82.5787C91.9193 72.9035 93.0986 64.771 93.323 64.5058C93.5479 64.2411 94.3738 64.0144 95.1593 64.003C100.327 63.9272 100.017 64.2766 103.661 54.4318C105.498 49.469 107 44.884 107 44.2429C107 43.6011 106.482 42.7963 105.849 42.4535C105.104 42.0505 95.1367 41.831 77.5847 41.831C59.2128 41.831 50.4711 41.6295 50.4711 41.2055C50.4711 40.0566 52.8376 35.874 54.7018 33.728C56.1168 32.0992 57.004 31.606 58.5226 31.606C59.9507 31.606 60.8432 31.1651 61.7334 30.0211C63.2758 28.0399 63.2895 26.7696 61.7911 24.8443C60.2845 22.9075 58.8362 22.5455 56.5268 23.5271ZM101.643 46.7931C101.642 46.8761 100.627 49.6501 99.387 52.9582C97.3496 58.3955 96.9771 58.9915 95.505 59.1647L93.8764 59.3566L94.0418 55.2552L94.2066 51.1538L71.6647 50.9962C56.9225 50.8927 48.8686 51.0515 48.3884 51.4545C47.7202 52.0151 47.7047 55.1012 48.3551 58.221C48.5229 59.027 48.1814 59.2736 46.8973 59.2736C45.3472 59.2736 45.0806 58.9043 43.3788 54.3993C42.366 51.7185 41.3759 48.8766 41.1795 48.0839L40.8213 46.6427H71.2333C87.9593 46.6427 101.644 46.7101 101.643 46.7931ZM89.5177 56.7174C89.3416 57.6274 87.9373 68.3564 86.3973 80.5602L83.597 102.75L85.6291 104.452L87.6612 106.156L71.4463 106.172C55.6997 106.188 52.8917 105.854 56.6381 104.415C57.4116 104.118 58.1751 103.515 58.3345 103.077C58.494 102.638 57.3373 92.3995 55.7634 80.325C54.1895 68.2505 52.8905 57.6274 52.8768 56.7174L52.8512 55.0633H71.3445H89.8384L89.5177 56.7174Z" fill="#00AC44"></path></svg> 