<?xml version="1.0" encoding="UTF-8"?> <svg xmlns="http://www.w3.org/2000/svg" width="137" height="136" viewBox="0 0 137 136" fill="none"><rect width="137" height="136" rx="5" fill="#8EEE9C"></rect><path fill-rule="evenodd" clip-rule="evenodd" d="M80.4576 28.255C79.3734 28.7269 79.1761 29.2808 79.1614 31.8927L79.1483 34.2342L72.6457 41.7842L66.1431 49.3341L63.8913 49.3906C61.4293 49.4521 60.8892 49.6447 60.3714 50.6452C59.9585 51.4428 60.0152 52.2538 60.5376 53.03C61.0895 53.8502 61.952 54.1756 63.6131 54.1907L64.856 54.2019V60.6553V67.1087L64.4086 67.2003C64.1624 67.2506 63.3794 67.3472 62.6685 67.4147C59.2845 67.7368 55.3838 68.9211 52.1086 70.6213C48.4381 72.5266 46.2519 74.3364 39.8981 80.7297C36.7126 83.935 33.5381 86.9473 32.8065 87.4587C31.0885 88.6599 28.9321 89.6386 27.0982 90.0493C24.6207 90.6042 23.2652 91.5589 22.4224 93.3425C22.0179 94.1988 22 94.5191 22 100.938V107.64L22.6519 108.289L23.3038 108.939L25.6349 108.919C30.6977 108.874 35.8289 107.529 40.1527 105.113C43.4795 103.253 45.7975 101.291 51.7307 95.3105C57.1915 89.8065 58.9594 88.2554 60.8787 87.284C61.7095 86.8636 64.2733 85.9912 64.678 85.9912C64.7803 85.9912 64.856 89.8791 64.856 95.1102V104.229L63.1694 104.299C61.5709 104.366 61.4488 104.403 60.8327 105.019C60.2733 105.578 60.1826 105.806 60.1826 106.654C60.1826 107.503 60.2733 107.731 60.8327 108.29L61.4828 108.939L81.3161 108.987C96.9316 109.025 101.254 108.983 101.641 108.786C101.911 108.648 102.344 108.224 102.602 107.843C103.237 106.91 103.106 105.835 102.254 104.984C101.679 104.409 101.53 104.365 99.9524 104.299L98.2658 104.229V79.2155V54.2019L99.3099 54.2007C100.704 54.1993 101.68 53.907 102.225 53.3277C102.821 52.6937 102.977 51.468 102.565 50.6699C102.004 49.5865 101.589 49.4345 99.1661 49.4243L96.9732 49.4152L90.51 41.9415L84.0468 34.4676L83.9338 32.0662C83.8105 29.4417 83.6431 28.9426 82.6917 28.3631C81.9571 27.9157 81.3096 27.8843 80.4576 28.255ZM86.0591 44.0368C88.4523 46.8057 90.4404 49.1525 90.4768 49.2523C90.5162 49.3598 86.8437 49.4335 81.4472 49.4335C72.8038 49.4335 72.3661 49.4162 72.6485 49.0858C79.014 41.6379 81.4237 38.8923 81.5508 38.9416C81.6369 38.9752 83.6657 41.268 86.0591 44.0368ZM93.493 74.3682V94.5346H81.5609H69.6289V74.3682V54.2019H81.5609H93.493V74.3682ZM79.3344 61.7377C77.1984 62.42 75.6094 63.9453 74.7899 66.0996C74.4275 67.0525 74.4017 67.6684 74.4017 75.3485V83.5766L74.9136 84.1842C75.7216 85.1436 76.3655 85.2322 82.0239 85.1613L87.1605 85.0971L87.8408 84.3551L88.5213 83.6128L88.5165 75.315C88.512 67.0793 88.5084 67.0084 88.0474 65.8888C87.1597 63.7323 85.5932 62.3211 83.3643 61.67C81.976 61.2645 80.7515 61.2849 79.3344 61.7377ZM82.5531 66.4197C83.7558 67.0412 83.7485 66.9949 83.7485 74.0152V80.4281H81.4615H79.1745V74.1596C79.1745 67.2113 79.2185 66.9403 80.4304 66.4137C81.2585 66.0537 81.8481 66.0555 82.5531 66.4197ZM64.856 76.5311V81.1777L63.9251 81.3172C61.5079 81.6794 58.5565 82.9637 55.907 84.8065C54.9602 85.4649 52.2731 87.9979 48.5489 91.7421C41.5829 98.7459 39.4699 100.408 35.2991 102.164C32.8166 103.209 29.2668 104.071 27.447 104.071H26.6734L26.6764 99.75C26.6782 97.3734 26.7452 95.3256 26.8255 95.1996C26.9059 95.0734 27.7771 94.78 28.7615 94.5473C31.0045 94.0174 33.6694 92.7357 35.8384 91.1439C36.8497 90.4018 39.8327 87.5823 43.3783 84.0171C49.6245 77.7365 51.1827 76.4453 54.5754 74.7378C57.3523 73.3404 60.7031 72.3607 63.8617 72.0228C64.2445 71.9819 64.6247 71.934 64.7069 71.9165C64.789 71.899 64.856 73.9756 64.856 76.5311ZM93.493 101.787V104.27H81.5609H69.6289V101.787V99.303H81.5609H93.493V101.787Z" fill="#00AC44"></path></svg> 