<?xml version="1.0" encoding="UTF-8"?> <svg xmlns="http://www.w3.org/2000/svg" width="134" height="134" viewBox="0 0 134 134"><defs><clipPath id="rx7fx3ivua"><path data-name="Rectangle 619" transform="translate(0 .182)" style="fill:#00ac44" d="M0 0h86v70H0z"></path></clipPath></defs><g data-name="Group 7726" transform="translate(-740 -1693)"><rect data-name="Rectangle 618" width="134" height="134" rx="3" transform="translate(740 1693)" style="fill:#8eee9c"></rect><g data-name="Group 7712"><g data-name="Group 7713" style="clip-path:url(#rx7fx3ivua)" transform="translate(764 1724.818)"><path data-name="Path 233" d="M28.818 53.182h-5.863a1.955 1.955 0 0 1 0-3.909h5.864c19.254 0 33.227-4.931 33.227-11.727 0-7.23-14.514-15.636-33.227-15.636a1.955 1.955 0 0 1 0-3.909C48.6 18 65.955 27.134 65.955 37.545c0 9.5-14.577 15.636-37.136 15.636" transform="translate(20.045 17.182)" style="fill:#00ac44"></path><path data-name="Path 234" d="M36.453 39.091a1.955 1.955 0 0 1 0-3.909c13.811 0 23.457-3.215 23.457-7.818 0-4.151-12.849-10.828-25.511-11.729l-2.854-.092c-6.225.475-11.786 2.574-15.273 5.762a1.953 1.953 0 1 1-2.637-2.881 24.485 24.485 0 0 1 8.326-4.859c-2.629-1.161-3.1-2.594-3.1-3.792C18.862 4.841 27.577 0 36.453 0s17.593 4.841 17.593 9.773c0 1.554-.784 3.5-5.967 4.736 8.4 2.811 15.74 7.453 15.74 12.855 0 7.343-10.23 11.727-27.366 11.727m-1.91-27.364h3.864c7.228-.311 10.914-1.431 11.706-2.138-.387-1.648-5.666-5.68-13.66-5.68-7.977 0-13.248 4.017-13.656 5.67.811.706 4.5 1.822 11.747 2.148" transform="translate(12.409)" style="fill:#00ac44"></path><path data-name="Path 235" d="M11.727 57.954a1.954 1.954 0 0 1-1.794-1.181c-3.016-6.982-1.91-11.424-.451-13.92a13.054 13.054 0 0 1 .856-1.3c-.453-.125-.911-.27-1.368-.436-2.817-1.017-6.799-3.15-8.884-9.952a1.955 1.955 0 0 1 .807-2.215c5.08-3.284 10.224-4.372 13.985-3.018.164.057.324.119.485.182a14.952 14.952 0 0 1-.008-.52c0-2.637.9-7.73 6.933-12.21a1.959 1.959 0 0 1 2.334 0c6.03 4.482 6.931 9.575 6.931 12.21 0 .174 0 .348-.008.518.158-.061.319-.123.483-.18 3.759-1.354 8.9-.266 13.989 3.018a1.955 1.955 0 0 1 .807 2.215c-2.087 6.8-6.071 8.936-8.885 9.949-.457.166-.915.311-1.368.436a13.661 13.661 0 0 1 .858 1.3c1.458 2.5 2.562 6.937-.452 13.92a1.965 1.965 0 0 1-2.025 1.167c-5.4-.645-9.27-2.922-11.5-6.767-2.228 3.85-6.092 6.13-11.494 6.77a1.824 1.824 0 0 1-.231.014m11.727-15.639A1.953 1.953 0 0 1 25.4 44.1a13.182 13.182 0 0 0 1.306 4.879c1.39 2.558 3.764 4.15 7.234 4.845 1.325-3.684 1.37-6.845.111-9.007a7.639 7.639 0 0 0-2.77-2.887 1.955 1.955 0 0 1 .151-3.542 2.579 2.579 0 0 1 .774-.149 12.845 12.845 0 0 0 4.4-.807 9.42 9.42 0 0 0 5.973-5.995 14.49 14.49 0 0 0-7.042-2.179 6.508 6.508 0 0 0-2.191.346 11.638 11.638 0 0 0-3.159 1.655 1.955 1.955 0 0 1-3.016-2.257 11.373 11.373 0 0 0 .465-3.413c0-1.73-.577-4.957-4.189-8.131-3.614 3.174-4.191 6.4-4.191 8.131a11.241 11.241 0 0 0 .483 3.465 1.955 1.955 0 0 1-2.428 2.525 1.984 1.984 0 0 1-.614-.322 11.478 11.478 0 0 0-3.151-1.652 6.475 6.475 0 0 0-2.191-.348 14.49 14.49 0 0 0-7.042 2.179 9.42 9.42 0 0 0 5.973 5.995 12.765 12.765 0 0 0 4.3.807 1.924 1.924 0 0 1 1.542.6 1.951 1.951 0 0 1-.465 3.061 7.6 7.6 0 0 0-2.813 2.912c-1.263 2.162-1.216 5.322.111 9 3.467-.692 5.842-2.285 7.232-4.843a13.846 13.846 0 0 0 1.315-4.868 1.953 1.953 0 0 1 1.947-1.783" transform="translate(0 12.408)" style="fill:#00ac44"></path><path data-name="Path 236" d="M11 25.954A1.955 1.955 0 1 0 12.955 24 1.954 1.954 0 0 0 11 25.954" transform="translate(10.5 22.908)" style="fill:#00ac44"></path></g></g></g></svg> 