<?xml version="1.0" encoding="UTF-8"?> <svg xmlns="http://www.w3.org/2000/svg" width="134" height="134" viewBox="0 0 134 134"><defs><clipPath id="9q251c0foa"><path data-name="Rectangle 621" style="fill:#00ac44" d="M0 0h93.875v95.946H0z"></path></clipPath></defs><g data-name="Group 7716" transform="translate(-898 -1693)"><rect data-name="Rectangle 620" width="134" height="134" rx="3" transform="translate(898 1693)" style="fill:#8eee9c"></rect><g data-name="Group 7714"><g data-name="Group 7715" style="clip-path:url(#9q251c0foa)" transform="translate(918 1712.027)"><path data-name="Path 237" d="M163.733 98.643a1.72 1.72 0 0 1-1.716-1.629l-2.045-38.32h-44.406l-1.43 25.362a1.72 1.72 0 0 1-3.436-.193l1.522-26.986a1.72 1.72 0 0 1 1.717-1.624H161.6a1.72 1.72 0 0 1 1.718 1.629l2.131 39.949a1.72 1.72 0 0 1-1.626 1.809h-.093" transform="translate(-86.895 -43.373)" style="fill:#00ac44"></path><path data-name="Path 238" d="M188.007 19.406a1.72 1.72 0 0 1-1.72-1.72 14.246 14.246 0 0 0-28.491 0 1.72 1.72 0 1 1-3.44 0 17.686 17.686 0 0 1 35.372 0 1.72 1.72 0 0 1-1.72 1.72" transform="translate(-121.164)" style="fill:#00ac44"></path><path data-name="Path 239" d="M327.1 300.744h-22.793a1.72 1.72 0 0 1 0-3.441h20.931l-2.533-31.668h-21.678a1.72 1.72 0 1 1 0-3.44h23.266a1.719 1.719 0 0 1 1.714 1.583l2.808 35.109a1.72 1.72 0 0 1-1.714 1.857" transform="translate(-234.947 -205.815)" style="fill:#00ac44"></path><path data-name="Path 240" d="M280.583 240.28a1.72 1.72 0 0 1-1.72-1.72 11.749 11.749 0 0 0-23.5 0 1.72 1.72 0 1 1-3.44 0 15.189 15.189 0 0 1 30.379 0 1.72 1.72 0 0 1-1.72 1.72" transform="translate(-197.753 -175.339)" style="fill:#00ac44"></path><path data-name="Path 241" d="M64.293 257.717H1.72a1.72 1.72 0 0 1-1.715-1.857l3.854-48.19a1.72 1.72 0 0 1 1.715-1.583h54.865a1.719 1.719 0 0 1 1.714 1.583l3.854 48.19a1.72 1.72 0 0 1-1.714 1.857m-60.709-3.441H62.43l-3.579-44.75H7.162z" transform="translate(0 -161.771)" style="fill:#00ac44"></path><path data-name="Path 242" d="M98.217 174.723A1.72 1.72 0 0 1 96.5 173a16.767 16.767 0 0 0-33.534 0 1.72 1.72 0 0 1-3.44 0 20.207 20.207 0 0 1 40.415 0 1.72 1.72 0 0 1-1.72 1.72" transform="translate(-46.723 -119.94)" style="fill:#00ac44"></path><path data-name="Path 243" d="M57.781 241.965a2.668 2.668 0 1 1 2.668-2.669 2.648 2.648 0 0 1-2.668 2.669m0-3.441a.772.772 0 1 0 .546.226.773.773 0 0 0-.546-.226m.548.228z" transform="translate(-43.262 -185.746)" style="fill:#00ac44"></path><path data-name="Path 244" d="M229.732 241.965a2.668 2.668 0 1 1 2.668-2.665 2.646 2.646 0 0 1-2.668 2.669m0-3.441a.772.772 0 1 0 .548.228.773.773 0 0 0-.548-.228m.549.228z" transform="translate(-178.238 -185.746)" style="fill:#00ac44"></path><path data-name="Path 245" d="M376.154 289.886a2.473 2.473 0 0 1-1.753-.723l-.008-.008a2.485 2.485 0 1 1 1.761.731m0-3.44a.956.956 0 1 0 .68.284l-1.22 1.213 1.213-1.221a.963.963 0 0 0-.673-.276" transform="translate(-293.319 -223.652)" style="fill:#00ac44"></path><path data-name="Path 246" d="M153.287 79.214a2.469 2.469 0 0 1-1.755-.726 2.484 2.484 0 1 1 1.756.727m0-3.44a.957.957 0 1 0 .676.281l-1.216 1.216 1.214-1.218a.961.961 0 0 0-.675-.279" transform="translate(-118.376 -58.281)" style="fill:#00ac44"></path><path data-name="Path 247" d="M301.786 79.214a2.473 2.473 0 0 1-1.753-.723 2.484 2.484 0 1 1 1.756.727m0-3.44a.958.958 0 1 0 .676.281l-1.216 1.216 1.213-1.221a.963.963 0 0 0-.673-.276" transform="translate(-234.943 -58.281)" style="fill:#00ac44"></path></g></g></g></svg> 