<?xml version="1.0" encoding="UTF-8"?> <svg xmlns="http://www.w3.org/2000/svg" width="800" height="199" viewBox="0 0 800 199" fill="none"><path d="M388.99 1.94141L377.16 72.2314L322.23 1.94141H283.08L265.7 104.791H292.19L303.17 39.6814L353.39 104.791H398.14L415.52 1.94141H388.99Z" fill="white"></path><path d="M554.7 1.94141L543.04 70.9414C539.07 94.5914 514.73 106.421 477.41 106.421C428.63 106.421 415.16 94.5914 419.16 70.9414L430.8 1.94141H473.32L462.59 65.4514C461.04 74.4914 461.86 80.7314 464.98 84.0214C468.09 87.3214 474.65 89.0214 484.57 89.0214C503.82 89.0214 514.85 80.8514 517.6 64.5914L528.21 1.94141H554.68H554.7Z" fill="white"></path><path d="M552.46 104.779L569.87 1.94922H639.26C672.82 1.94922 683.99 10.3192 681.17 27.1392C679.13 39.1092 667.73 46.7492 646.89 50.1592C670.7 53.5692 681.37 62.6692 678.89 77.4292C675.83 95.6592 657.82 104.779 624.98 104.779H552.46ZM605.89 40.3392H619.02C631.12 40.3392 637.91 35.7692 639.29 27.5292C640.44 20.7292 634.73 16.7792 621.91 16.7792H609.88L605.89 40.3292V40.3392ZM597.54 89.9092H609.65C625.58 89.9092 634.16 85.9392 636.33 73.1792C638.78 58.5792 631.13 55.1792 614.79 55.1792H603.37L597.54 89.8992V89.9092Z" fill="white"></path><path d="M800 1.94141L796.6 21.9614H744.1L740.45 43.3514H784.6L781.24 63.4314H737.06L733.48 84.7514H785.99L782.58 104.781H687.6L704.94 1.94141H800Z" fill="white"></path><path d="M219.47 104.791H262.24L238.81 1.94141H195.34L134.59 104.781H157.32L168.99 84.7514H215.21L219.48 104.781L219.47 104.791ZM177.31 70.3514L202.74 26.5614L212.11 70.3514H177.31Z" fill="white"></path><path d="M92.1798 0L76.5298 0.07L74.0898 15.13L82.4198 15.16C106.56 15.16 106.63 35.89 103.81 52.5C101.03 69.05 98.1898 73.99 93.0698 80.33C87.9798 86.67 80.2198 89.86 69.7598 89.86H58.3398L73.9498 0.25H58.1298L53.5598 30.25H40.3498L35.8298 56.65H21.4098L12.3398 105.08H72.0198C117.74 105.08 143.57 87.59 149.46 52.64C155.35 17.51 136.28 0 92.1798 0Z" fill="white"></path><path fill-rule="evenodd" clip-rule="evenodd" d="M202.03 198.01C200.53 197.85 199.02 197.71 197.53 197.53C188.77 196.44 180.68 193.67 174.19 187.09C169.41 182.26 166.88 176.27 166.03 169.45C163.47 148.9 174.63 127.22 197.32 121.02C200.86 120.05 204.61 119.93 208.27 119.4C208.77 119.34 209.26 119.26 209.75 119.18H216.53C218.69 119.42 220.86 119.62 223.01 119.93C235.27 121.71 244.49 127.95 249.58 140.02C251.95 145.64 252.5 151.58 251.97 157.68C251.03 168.66 246.86 178.08 239.06 185.5C232.16 192.08 224 196.21 214.59 197.31C212.58 197.55 210.58 197.78 208.57 198.01H202.02H202.03ZM190.88 166.14C190.47 171.84 194.23 177.84 200.33 179.84C204.09 181.07 207.92 181.04 211.69 179.81C216.93 178.08 220.31 174.13 222.76 169.24C225.41 163.94 226.75 158.18 226.91 152.27C227.08 146.17 224.77 141.11 219.17 138.4C213.8 135.79 208.33 135.93 203.08 138.81C198.68 141.23 195.94 145.27 194.08 149.96C192.14 154.79 191.16 159.85 190.88 166.14Z" fill="white"></path><path fill-rule="evenodd" clip-rule="evenodd" d="M737.39 198.01C735.61 197.86 733.83 197.71 732.04 197.53C726.73 196.98 721.46 196.08 716.68 193.43C708.45 188.86 704.25 181.68 704.32 171.88C704.32 171.77 704.38 171.64 704.44 171.44C712.39 170.95 720.34 170.44 728.29 169.94C728.47 171.36 728.56 172.71 728.81 174.02C729.61 178 731.85 180.7 735.6 181.94C739.81 183.33 744.03 183.22 748.23 181.91C750.02 181.33 751.51 180.24 752.72 178.74C754.56 176.48 754.62 173.59 752.64 171.46C751.69 170.42 750.49 169.5 749.22 169C744.94 167.26 740.57 165.72 736.25 164.12C731.36 162.3 726.55 160.35 722.01 157.69C711.51 151.53 710.6 137.64 718.13 129.16C722.29 124.49 727.62 122.02 733.47 120.69C736.34 120.03 739.3 119.81 742.23 119.38C742.57 119.33 742.9 119.25 743.25 119.18H750.73C751.11 119.24 751.49 119.34 751.87 119.38C755.56 119.9 759.3 120.17 762.94 120.96C768.14 122.07 772.97 124.2 776.91 128.11C780.65 131.82 782.6 136.42 783.16 141.84C775.13 142.25 767.23 142.65 759.31 143.04C759.24 142.88 759.19 142.77 759.17 142.67C759.09 142.31 759.02 141.94 758.95 141.59C758.28 137.79 756.25 135.15 752.74 133.89C749.3 132.67 745.74 132.5 742.27 133.58C740.91 134.01 739.55 134.9 738.53 135.92C736.72 137.72 736.82 140.09 738.71 141.8C739.75 142.73 741 143.53 742.28 144.06C747.3 146.09 752.4 147.93 757.45 149.96C761.96 151.77 766.43 153.68 770.3 156.82C775.12 160.72 778.03 165.64 778.14 172.15C778.27 179.51 775.15 185.2 769.85 189.75C764.1 194.71 757.31 196.89 749.99 197.54C748.37 197.68 746.75 197.87 745.12 198.02H737.41L737.39 198.01Z" fill="white"></path><path fill-rule="evenodd" clip-rule="evenodd" d="M473.81 164.86C475.37 166.53 476.94 168.03 478.3 169.74C483.14 175.84 486.72 182.79 490.19 189.79C491.29 192.02 492.32 194.29 493.48 196.71C492.94 196.74 492.59 196.78 492.23 196.78C484 196.78 475.77 196.76 467.55 196.81C466.6 196.83 466.23 196.43 465.82 195.62C462.16 188.23 458.49 180.85 454.74 173.52C453.91 171.92 452.84 170.44 451.75 169.01C449.68 166.27 446.72 165.82 443.63 165.94C443.38 165.94 443.01 166.49 442.95 166.83C441.98 171.8 441.05 176.79 440.11 181.76C439.17 186.73 438.23 191.7 437.28 196.73H411.57C416.37 171.26 421.14 145.89 425.95 120.41H427.16C442.67 120.41 458.19 120.39 473.71 120.44C478.29 120.45 482.83 120.96 487.01 123.11C492.98 126.18 496.64 131.21 497.62 138.05C499.2 149.29 493.7 158.56 483.26 162.39C480.56 163.37 477.69 163.89 474.9 164.62C474.55 164.71 474.18 164.78 473.81 164.86ZM445.89 151.38C446.13 151.42 446.33 151.48 446.51 151.48C451.81 151.38 457.11 151.35 462.4 151.12C465.3 151 468.2 150.56 470.5 148.49C472.77 146.48 474.08 143.93 473.3 140.73C472.6 137.88 470.42 136.76 467.84 136.33C467.57 136.29 467.3 136.23 467.02 136.23C461.18 136.13 455.35 136.02 449.51 135.99C449.21 135.99 448.73 136.46 448.64 136.8C448.35 137.84 448.21 138.94 448.01 140.01C447.31 143.78 446.6 147.55 445.9 151.38" fill="white"></path><path fill-rule="evenodd" clip-rule="evenodd" d="M407.39 179.442C406.44 184.422 405.54 189.242 404.61 194.052C404.264 195.885 403.194 196.802 401.4 196.802H332.78C337.46 171.322 342.13 145.962 346.81 120.512H415.05C414.03 125.982 413.02 131.382 411.97 136.932H410.6C397.39 136.932 384.16 136.952 370.96 136.912C369.91 136.912 369.49 137.172 369.3 138.302C368.73 141.822 368 145.322 367.3 148.972H408.17C407.13 154.182 406.13 159.222 405.11 164.422H403.64C391.04 164.422 378.45 164.422 365.86 164.382C364.78 164.382 364.32 164.632 364.11 165.842C363.41 170.042 362.58 174.212 361.81 178.372C361.74 178.702 361.74 179.032 361.69 179.452H407.4L407.39 179.442Z" fill="white"></path><path fill-rule="evenodd" clip-rule="evenodd" d="M692.83 179.44C691.94 183.65 691.08 187.72 690.23 191.81C689.94 193.14 689.62 194.5 689.39 195.86C689.26 196.6 688.93 196.81 688.22 196.81C683.84 196.78 679.49 196.79 675.12 196.79H617.85C623.09 171.32 628.29 145.95 633.51 120.5H701.72C700.58 125.98 699.45 131.43 698.3 136.92H696.82C683.63 136.92 670.46 136.94 657.29 136.9C656.23 136.9 655.83 137.2 655.62 138.31C654.96 141.84 654.18 145.36 653.41 148.99H694.2C694.1 149.54 694.03 149.97 693.93 150.39C692.99 154.66 692.03 158.93 691.13 163.23C690.94 164.19 690.56 164.43 689.66 164.43C676.98 164.4 664.31 164.41 651.64 164.41H650.17C649.12 169.42 648.07 174.36 647.01 179.44H692.82H692.83Z" fill="white"></path><path fill-rule="evenodd" clip-rule="evenodd" d="M284.5 168.612C282.83 178.072 281.17 187.362 279.53 196.722H253.76C253.85 196.172 253.91 195.632 254.01 195.112C257.45 175.972 260.9 156.832 264.35 137.702C265.33 132.282 266.36 126.872 267.31 121.442C267.45 120.582 267.78 120.422 268.52 120.422C281.39 120.442 294.25 120.402 307.12 120.482C311.55 120.512 315.99 120.852 320.27 122.262C328.63 125.022 333.32 131.502 333.72 141.232C334.12 150.932 329.7 158.042 322.11 163.162C317.02 166.592 311.22 167.802 305.3 168.162C298.92 168.522 292.52 168.492 286.14 168.632C285.63 168.632 285.13 168.632 284.49 168.632M287.4 153.712C291.84 153.492 296.09 153.542 300.27 152.992C303.76 152.542 306.6 150.492 308.4 147.212C311.17 142.142 308.84 136.642 303.35 135.962C299.35 135.472 295.26 135.762 291.21 135.742C290.99 135.742 290.63 136.152 290.57 136.422C289.52 142.032 288.51 147.642 287.41 153.702" fill="white"></path><path fill-rule="evenodd" clip-rule="evenodd" d="M504.48 139.208C505.68 133.068 506.82 127.148 508 121.238C508.07 120.918 508.56 120.668 508.86 120.428C508.96 120.348 509.17 120.408 509.32 120.408H587.03C586.61 122.668 586.21 124.848 585.79 127.008C585.06 130.708 584.28 134.378 583.6 138.078C583.44 138.968 583.13 139.168 582.33 139.168C574.14 139.138 565.95 139.148 557.77 139.148H556.26C552.39 158.368 548.53 177.538 544.66 196.718H518.95C522.76 177.538 526.56 158.438 530.39 139.198H504.47L504.48 139.208Z" fill="white"></path><path fill-rule="evenodd" clip-rule="evenodd" d="M620.35 120.422C615.13 145.942 609.93 171.352 604.73 196.762H578.84C579.24 194.712 579.62 192.742 580.01 190.782C584.58 168.232 589.14 145.702 593.7 123.162C594.25 120.442 594.22 120.432 596.96 120.432H620.35V120.422Z" fill="white"></path><path fill-rule="evenodd" clip-rule="evenodd" d="M91.4104 120.422H92.6904C108.17 120.422 123.65 120.402 139.13 120.452C143.3 120.452 147.43 120.952 151.37 122.582C159 125.752 164.01 133.522 163.92 142.092C163.8 152.212 158.44 159.522 148.54 162.862C146.24 163.632 143.85 164.052 141.5 164.622C141.14 164.712 140.77 164.772 140.76 164.592C142.12 166.242 143.51 167.882 144.86 169.542C149.16 174.782 152.55 180.662 155.74 186.662C157.3 189.612 158.77 192.612 160.28 195.592C160.46 195.942 160.59 196.312 160.79 196.802H159.4C151.34 196.802 143.27 196.782 135.19 196.832C134.08 196.832 133.58 196.432 133.08 195.452C129.39 188.312 125.69 181.182 121.87 174.112C120.81 172.142 119.48 170.292 118.05 168.602C115.99 166.182 113.13 165.812 110.21 165.952C109.99 165.952 109.65 166.442 109.6 166.772C108.63 172.562 107.69 178.372 106.74 184.162C106.04 188.352 105.34 192.552 104.64 196.752H78.9404C83.0904 171.312 87.2404 145.932 91.4004 120.422M112.11 151.342C112.32 151.392 112.47 151.482 112.61 151.472C118.64 151.302 124.67 151.172 130.69 150.892C132.84 150.782 134.93 150.072 136.6 148.542C138.69 146.622 139.96 144.272 139.35 141.242C138.75 138.242 136.72 136.622 133.99 136.472C127.73 136.152 121.47 136.102 115.22 135.982C114.98 135.982 114.58 136.352 114.53 136.602C113.7 141.502 112.91 146.412 112.1 151.352" fill="white"></path><path fill-rule="evenodd" clip-rule="evenodd" d="M12.37 120.411H21.33C31.54 120.421 41.76 120.361 51.96 120.461C56.58 120.511 61.22 120.851 65.67 122.411C73.4 125.131 78.09 131.761 78.94 139.981C80.28 152.871 71.68 162.581 62.39 165.851C56.67 167.881 50.73 168.401 44.75 168.531C40.35 168.621 35.94 168.621 31.54 168.581C30.59 168.581 30.18 168.841 30.03 169.861C28.95 177.031 27.81 184.191 26.68 191.361C26.46 192.801 26.16 194.231 26.02 195.681C25.94 196.581 25.63 196.811 24.8 196.811C19.61 196.781 14.43 196.781 9.25 196.781H0C4.14 171.251 8.24 145.881 12.37 120.411ZM32.91 153.631C37.18 153.461 41.24 153.541 45.25 153.081C48.84 152.671 51.81 150.731 53.69 147.381C56.5 142.381 54.08 136.911 48.66 135.881C48.01 135.751 47.35 135.701 46.68 135.701C43.4 135.681 40.13 135.721 36.85 135.661C35.97 135.661 35.74 136.021 35.61 136.851C35.28 139.201 34.86 141.571 34.48 143.931C33.98 147.041 33.47 150.151 32.91 153.641" fill="white"></path></svg> 