<?xml version="1.0" encoding="UTF-8"?> <svg xmlns="http://www.w3.org/2000/svg" width="248.56" height="32.504" viewBox="0 0 248.56 32.504"><defs><clipPath id="gu86ond11a"><path data-name="Rectangle 580" style="fill:#fff" d="M0 0h248.56v32.504H0z"></path></clipPath></defs><g style="clip-path:url(#gu86ond11a)"><path data-name="Path 211" d="M65.454 0v31.731h-5.315V9.608l-9.7 14.223L40.7 9.6v22.131h-5.3V0h4.585l10.457 15.18L60.838 0z" transform="translate(11.405 .386)" style="fill:#fff"></path><path data-name="Path 212" d="M92.449 22.676 72.209 0H68.05v31.731h5.322V9.049l20.3 22.682h4.1V0h-5.323z" transform="translate(21.921 .386)" style="fill:#fff"></path><path data-name="Path 213" d="M106.2 0h-5.333v31.731h5.333z" transform="translate(32.493 .386)" style="fill:#fff"></path><path data-name="Path 214" d="m139.028 0-8.953 15.938L121.089 0H114.8l12.6 21.461v10.27h5.333v-10.27L145.333 0z" transform="translate(36.979 .386)" style="fill:#fff"></path><path data-name="Path 215" d="M169.017 0v4.807h9.876v26.924h5.352V4.807h9.87V0z" transform="translate(54.445 .386)" style="fill:#fff"></path><path data-name="Path 216" d="M139.709 31.731h5.631l10.687-20.354 10.662 20.354h5.656L156.015 0z" transform="translate(45.004 .386)" style="fill:#c72035"></path><path data-name="Path 217" d="M28.65 4.6a17.629 17.629 0 0 0-23.761 0 15.7 15.7 0 0 0-3.616 5.15 15.309 15.309 0 0 0 0 12.219 15.7 15.7 0 0 0 3.615 5.147 17.616 17.616 0 0 0 23.761 0 15.637 15.637 0 0 0 3.639-5.143 15.245 15.245 0 0 0 0-12.234A15.638 15.638 0 0 0 28.65 4.6zm-3.744 19.051a10.9 10.9 0 0 1-3.681 2.406 11.146 11.146 0 0 1-4.363.776 11.324 11.324 0 0 1-4.4-.774 11.074 11.074 0 0 1-3.727-2.409 10.8 10.8 0 0 1 0-15.571 11.073 11.073 0 0 1 3.727-2.409 11.324 11.324 0 0 1 4.4-.774 11.165 11.165 0 0 1 4.362.775 10.926 10.926 0 0 1 3.682 17.978z" transform="translate(0 .386)" style="fill:#fff"></path></g></svg> 