<?xml version="1.0" encoding="UTF-8"?> <svg xmlns="http://www.w3.org/2000/svg" width="837" height="274" viewBox="0 0 837 274" fill="none"><mask id="mask0_2281_22" style="mask-type:luminance" maskUnits="userSpaceOnUse" x="0" y="0" width="837" height="274"><path d="M837 0H0V274H837V0Z" fill="white"></path></mask><g mask="url(#mask0_2281_22)"><path fill-rule="evenodd" clip-rule="evenodd" d="M462.501 123.4C462.501 154.1 433.501 167.7 400.001 167.7H355.801V8.2002H389.601C419.301 8.2002 442.701 19.2001 442.701 44.8001C442.701 61.3001 432.601 71.8002 417.801 77.2002C444.401 82.4002 462.501 99.0002 462.501 123.4ZM397.901 158.7C425.501 158.7 437.801 143.3 437.801 121C437.801 108.3 433.801 97.2002 425.101 90.1002C416.901 82.5002 406.501 79.0002 401.001 77.7002C422.701 72.9002 420.901 46.6002 420.901 43.9002C420.901 27.8002 413.501 17.1002 391.501 17.1002H379.201V158.7H397.901Z" fill="white"></path><path d="M11.1 162.3C22 167.9 35.8 170.4 47.7 170.4C68.3 170.4 104.6 163 104.6 126.9C104.6 101.5 86.3 87.3 56.2 66.8C42.2 56.9 23.2 46.9 23.2 30.6C23.2 17 35.7 8.9 53.1 8.9C70.5 8.9 84.2 17.2 87.4 19.3L78.8 4.3C73 1.1 60.2 0 53.4 0C30.3 0 3.4 9.7 3.4 37.2C3.4 58.9 20.5 71.1 48.8 91.5C62 100.8 82.6 115.6 82.6 133.8C82.6 150.9 69.3 161.5 47.8 161.5C22.7 161.5 4.4 146.6 0 142.6L11.1 162.3Z" fill="white"></path><path fill-rule="evenodd" clip-rule="evenodd" d="M223.198 170.4C180.498 170.4 147.398 136.4 147.398 87.9C147.398 39.5 180.498 5.5 223.198 5.5C265.798 5.5 298.798 40.7 298.798 87.9C298.798 135.2 265.798 170.4 223.198 170.4ZM275.398 87.9C275.398 44.8 254.498 14.3 223.198 14.3C191.798 14.3 170.898 44.8 170.898 87.9C170.898 131.1 191.798 161.5 223.198 161.5C254.498 161.5 275.398 131.3 275.398 87.9Z" fill="white"></path><path fill-rule="evenodd" clip-rule="evenodd" d="M792.9 120.8H731.3L712.1 167.7H703L769.8 4.7002L836.6 167.7H812.1L792.9 120.9V120.8ZM735 111.9H789.3L762.1 45.5002L735 111.9Z" fill="white"></path><path d="M630.102 8.30019V73.7002H544.502V8.2002H521.102V167.7H544.502V82.6002H630.102V167.7H653.502V8.2002H630.102V8.30019Z" fill="white"></path><path fill-rule="evenodd" clip-rule="evenodd" d="M462.501 123.4C462.501 154.1 433.501 167.7 400.001 167.7H355.801V8.2002H389.601C419.301 8.2002 442.701 19.2001 442.701 44.8001C442.701 61.3001 432.601 71.8002 417.801 77.2002C444.401 82.4002 462.501 99.0002 462.501 123.4ZM397.901 158.7C425.501 158.7 437.801 143.3 437.801 121C437.801 108.3 433.801 97.2002 425.101 90.1002C416.901 82.5002 406.501 79.0002 401.001 77.7002C422.701 72.9002 420.901 46.6002 420.901 43.9002C420.901 27.8002 413.501 17.1002 391.501 17.1002H379.201V158.7H397.901Z" fill="white"></path><path d="M11.1 162.3C22 167.9 35.8 170.4 47.7 170.4C68.3 170.4 104.6 163 104.6 126.9C104.6 101.5 86.3 87.3 56.2 66.8C42.2 56.9 23.2 46.9 23.2 30.6C23.2 17 35.7 8.9 53.1 8.9C70.5 8.9 84.2 17.2 87.4 19.3L78.8 4.3C73 1.1 60.2 0 53.4 0C30.3 0 3.4 9.7 3.4 37.2C3.4 58.9 20.5 71.1 48.8 91.5C62 100.8 82.6 115.6 82.6 133.8C82.6 150.9 69.3 161.5 47.8 161.5C22.7 161.5 4.4 146.6 0 142.6L11.1 162.3Z" fill="white"></path><path fill-rule="evenodd" clip-rule="evenodd" d="M223.198 170.4C180.498 170.4 147.398 136.4 147.398 87.9C147.398 39.5 180.498 5.5 223.198 5.5C265.798 5.5 298.798 40.7 298.798 87.9C298.798 135.2 265.798 170.4 223.198 170.4ZM275.398 87.9C275.398 44.8 254.498 14.3 223.198 14.3C191.798 14.3 170.898 44.8 170.898 87.9C170.898 131.1 191.798 161.5 223.198 161.5C254.498 161.5 275.398 131.3 275.398 87.9Z" fill="white"></path><path fill-rule="evenodd" clip-rule="evenodd" d="M792.9 120.8H731.3L712.1 167.7H703L769.8 4.7002L836.6 167.7H812.1L792.9 120.9V120.8ZM735 111.9H789.3L762.1 45.5002L735 111.9Z" fill="white"></path><path d="M630.102 8.30019V73.7002H544.502V8.2002H521.102V167.7H544.502V82.6002H630.102V167.7H653.502V8.2002H630.102V8.30019Z" fill="white"></path><path fill-rule="evenodd" clip-rule="evenodd" d="M303.299 273.7H296.199V237.4H313.599C321.899 237.4 325.999 241.4 325.999 247.7V249.7C325.999 254.5 322.999 258.1 318.099 259.4L327.399 273.8H319.599L310.799 260H303.299C303.299 260 303.299 273.8 303.299 273.7ZM303.299 254.6H311.999C316.699 254.6 318.899 252.6 318.899 249.5V248C318.899 244.7 316.999 243 312.299 243H303.299V254.6Z" fill="white"></path><path d="M371.201 237.4V243.3H350.701V252.5H366.601V258.1H350.701V267.8H371.201V273.7H343.801V237.4H371.201Z" fill="white"></path><path fill-rule="evenodd" clip-rule="evenodd" d="M408.202 266.1H392.102L389.302 273.7H382.102L396.302 237.1H404.202L418.502 273.7H411.102L408.202 266.1ZM394.102 260.8H406.202L400.202 244.8H400.102L394.102 260.8Z" fill="white"></path><path d="M440.799 237.4V267.6H458.899V273.7H433.699V237.4H440.799Z" fill="white"></path><path d="M498.098 237.4V243.5H485.798V273.7H478.698V243.5H466.398V237.4H498.098Z" fill="white"></path><path d="M517.298 237.4L526.898 253.7L536.398 237.4H544.098L530.298 259.8V273.7H523.198V259.8L509.398 237.4H517.298Z" fill="white"></path></g></svg> 