<?xml version="1.0" encoding="UTF-8"?> <svg xmlns="http://www.w3.org/2000/svg" width="134" height="134" viewBox="0 0 134 134"><defs><clipPath id="077abpouoa"><path data-name="Rectangle 612" transform="translate(.082 -.423)" style="fill:#00ac44" d="M0 0h80v76H0z"></path></clipPath></defs><g data-name="Group 7729" transform="translate(-278 -1693)"><rect data-name="Rectangle 613" width="134" height="134" rx="3" transform="translate(278 1693)" style="fill:#8eee9c"></rect><g data-name="Group 7708"><g data-name="Group 7707" transform="translate(304.918 1722.422)" style="clip-path:url(#077abpouoa)"><path data-name="Path 218" d="M44.666 15.961H12.974a1.981 1.981 0 0 1 0-3.961h31.692a1.981 1.981 0 0 1 0 3.961" transform="translate(11.251 11.712)" style="fill:#00ac44"></path><path data-name="Path 219" d="M44.666 23.961H12.974a1.981 1.981 0 1 1 0-3.961h31.692a1.981 1.981 0 0 1 0 3.961" transform="translate(11.251 19.558)" style="fill:#00ac44"></path><path data-name="Path 220" d="M55.447 35.923a17.031 17.031 0 0 1-7.513-1.941 18.195 18.195 0 0 0-16.666 0 17.031 17.031 0 0 1-7.513 1.941 16.239 16.239 0 0 1-7.818-2.189 12.4 12.4 0 0 0-6.047-1.773c-4.841 0-6.556 1.434-6.572 1.448a2.015 2.015 0 0 1-2.775-.123 1.951 1.951 0 0 1 .024-2.726C.994 30.133 3.453 28 9.89 28a16.239 16.239 0 0 1 7.818 2.189 12.4 12.4 0 0 0 6.047 1.773 13.248 13.248 0 0 0 5.895-1.594 22.1 22.1 0 0 1 19.9 0 13.248 13.248 0 0 0 5.895 1.594 12.4 12.4 0 0 0 6.047-1.773A16.239 16.239 0 0 1 69.312 28c6.437 0 8.9 2.133 9.323 2.561a1.981 1.981 0 0 1-2.757 2.844c-.111-.091-1.864-1.444-6.566-1.444a12.4 12.4 0 0 0-6.047 1.773 16.239 16.239 0 0 1-7.818 2.189" transform="translate(.47 27.404)" style="fill:#00ac44"></path><path data-name="Path 221" d="M47.588 41.926a16.146 16.146 0 0 1-7.788-2.183 12.4 12.4 0 0 0-6.077-1.779 12.4 12.4 0 0 0-6.077 1.779 16.146 16.146 0 0 1-7.788 2.183c-3.114 0-4.173-.553-5.435-1.4a8.325 8.325 0 0 0-1.319-.757l-1.157-.523c-2.181-1-2.7-1.232-4.053-1.286a1.978 1.978 0 0 1-1.9-2.058A1.943 1.943 0 0 1 8.053 34c2.133.085 3.2.572 5.536 1.636l1.139.517a11.981 11.981 0 0 1 1.9 1.078c.749.5 1.089.729 3.233.729a12.3 12.3 0 0 0 6.009-1.76 16.258 16.258 0 0 1 7.853-2.2 16.258 16.258 0 0 1 7.854 2.2 12.3 12.3 0 0 0 6.012 1.765c2.143 0 2.484-.228 3.233-.729a11.889 11.889 0 0 1 1.9-1.078l1.139-.517c2.337-1.064 3.4-1.551 5.536-1.636a1.955 1.955 0 0 1 2.058 1.9 1.98 1.98 0 0 1-1.9 2.058c-1.357.053-1.872.289-4.053 1.286l-1.157.523a8.236 8.236 0 0 0-1.319.757c-1.262.846-2.321 1.4-5.435 1.4" transform="translate(6.348 33.285)" style="fill:#00ac44"></path><path data-name="Path 222" d="M12.974 53.48a1.979 1.979 0 0 1-1.981-1.98V9.9a9.9 9.9 0 1 1 19.807 0 1.981 1.981 0 1 1-3.961 0 5.942 5.942 0 1 0-11.884 0v41.6a1.979 1.979 0 0 1-1.981 1.981" transform="translate(11.251 -.057)" style="fill:#00ac44"></path><path data-name="Path 223" d="M28.974 53.48a1.979 1.979 0 0 1-1.981-1.98V9.9a9.9 9.9 0 1 1 19.807 0 1.981 1.981 0 1 1-3.961 0 5.942 5.942 0 1 0-11.884 0v41.6a1.979 1.979 0 0 1-1.981 1.981" transform="translate(26.943 -.057)" style="fill:#00ac44"></path></g></g></g></svg> 