<?xml version="1.0" encoding="UTF-8"?> <svg xmlns="http://www.w3.org/2000/svg" width="50" height="50" viewBox="0 0 50 50" fill="none"><path d="M25 50C38.8071 50 50 38.8071 50 25C50 11.1929 38.8071 0 25 0C11.1929 0 0 11.1929 0 25C0 38.8071 11.1929 50 25 50Z" fill="#fde2e1"></path><path d="M25 47C37.1503 47 47 37.1503 47 25C47 12.8497 37.1503 3 25 3C12.8497 3 3 12.8497 3 25C3 37.1503 12.8497 47 25 47Z" fill="#fde2e1"></path><path d="M25.0006 46.6419C36.9549 46.6419 46.6458 36.951 46.6458 24.9967C46.6458 13.0424 36.9549 3.35156 25.0006 3.35156C13.0463 3.35156 3.35547 13.0424 3.35547 24.9967C3.35547 36.951 13.0463 46.6419 25.0006 46.6419Z" stroke="#EF4136"></path><path d="M29.78 17.594H21.07V22.768C21.434 22.2827 21.9713 21.8753 22.682 21.546C23.41 21.2167 24.1813 21.052 24.996 21.052C26.452 21.052 27.6307 21.364 28.532 21.988C29.4507 22.612 30.1007 23.4007 30.482 24.354C30.8807 25.3073 31.08 26.3127 31.08 27.37C31.08 28.6527 30.8287 29.7967 30.326 30.802C29.8407 31.79 29.104 32.57 28.116 33.142C27.1453 33.714 25.9493 34 24.528 34C22.6387 34 21.122 33.532 19.978 32.596C18.834 31.66 18.1493 30.4207 17.924 28.878H20.81C21.0007 29.6927 21.4253 30.3427 22.084 30.828C22.7427 31.296 23.566 31.53 24.554 31.53C25.7847 31.53 26.7033 31.1573 27.31 30.412C27.934 29.6667 28.246 28.6787 28.246 27.448C28.246 26.2 27.934 25.2467 27.31 24.588C26.686 23.912 25.7673 23.574 24.554 23.574C23.7047 23.574 22.9853 23.7907 22.396 24.224C21.824 24.64 21.408 25.212 21.148 25.94H18.34V14.994H29.78V17.594Z" fill="#EF4136"></path></svg> 