<?xml version="1.0" encoding="UTF-8"?> <svg xmlns="http://www.w3.org/2000/svg" width="50" height="50" viewBox="0 0 50 50" fill="none"><path d="M25 50C38.8071 50 50 38.8071 50 25C50 11.1929 38.8071 0 25 0C11.1929 0 0 11.1929 0 25C0 38.8071 11.1929 50 25 50Z" fill="white"></path><path d="M25 47C37.1503 47 47 37.1503 47 25C47 12.8497 37.1503 3 25 3C12.8497 3 3 12.8497 3 25C3 37.1503 12.8497 47 25 47Z" fill="white"></path><path d="M25.0006 46.6419C36.9549 46.6419 46.6458 36.951 46.6458 24.9967C46.6458 13.0424 36.9549 3.35156 25.0006 3.35156C13.0463 3.35156 3.35547 13.0424 3.35547 24.9967C3.35547 36.951 13.0463 46.6419 25.0006 46.6419Z" stroke="#EF4136"></path><path d="M18.508 19.726C18.612 18.114 19.2273 16.8573 20.354 15.956C21.498 15.0547 22.954 14.604 24.722 14.604C25.9353 14.604 26.984 14.8207 27.868 15.254C28.752 15.6873 29.4193 16.2767 29.87 17.022C30.3207 17.7673 30.546 18.608 30.546 19.544C30.546 20.6187 30.26 21.5373 29.688 22.3C29.116 23.0627 28.4313 23.574 27.634 23.834V23.938C28.6567 24.25 29.454 24.822 30.026 25.654C30.598 26.4687 30.884 27.5173 30.884 28.8C30.884 29.8227 30.65 30.7327 30.182 31.53C29.714 32.3273 29.0207 32.96 28.102 33.428C27.1833 33.8787 26.0827 34.104 24.8 34.104C22.928 34.104 21.3853 33.6273 20.172 32.674C18.976 31.7033 18.3347 30.3167 18.248 28.514H21.108C21.1773 29.4327 21.5327 30.1867 22.174 30.776C22.8153 31.348 23.682 31.634 24.774 31.634C25.8313 31.634 26.646 31.348 27.218 30.776C27.79 30.1867 28.076 29.4327 28.076 28.514C28.076 27.3007 27.686 26.4427 26.906 25.94C26.1433 25.42 24.9647 25.16 23.37 25.16H22.694V22.716H23.396C24.8 22.6987 25.866 22.4647 26.594 22.014C27.3393 21.5633 27.712 20.8527 27.712 19.882C27.712 19.05 27.4433 18.3913 26.906 17.906C26.3687 17.4033 25.606 17.152 24.618 17.152C23.6473 17.152 22.8933 17.4033 22.356 17.906C21.8187 18.3913 21.498 18.998 21.394 19.726H18.508Z" fill="#EF4136"></path></svg> 