<?xml version="1.0" encoding="UTF-8"?> <svg xmlns="http://www.w3.org/2000/svg" width="50" height="50" viewBox="0 0 50 50" fill="none"><path d="M25 50C38.8071 50 50 38.8071 50 25C50 11.1929 38.8071 0 25 0C11.1929 0 0 11.1929 0 25C0 38.8071 11.1929 50 25 50Z" fill="white"></path><path d="M25 47C37.1503 47 47 37.1503 47 25C47 12.8497 37.1503 3 25 3C12.8497 3 3 12.8497 3 25C3 37.1503 12.8497 47 25 47Z" fill="white"></path><path d="M25.0006 46.6419C36.9549 46.6419 46.6458 36.951 46.6458 24.9967C46.6458 13.0424 36.9549 3.35156 25.0006 3.35156C13.0463 3.35156 3.35547 13.0424 3.35547 24.9967C3.35547 36.951 13.0463 46.6419 25.0006 46.6419Z" stroke="#EF4136"></path><path d="M21.17 18.75V16.046H26.578V35H23.588V18.75H21.17Z" fill="#EF4136"></path></svg> 