<?xml version="1.0" encoding="UTF-8"?> <svg xmlns="http://www.w3.org/2000/svg" width="50" height="50" viewBox="0 0 50 50" fill="none"><path d="M25 50C38.8071 50 50 38.8071 50 25C50 11.1929 38.8071 0 25 0C11.1929 0 0 11.1929 0 25C0 38.8071 11.1929 50 25 50Z" fill="#fde2e1"></path><path d="M25 47C37.1503 47 47 37.1503 47 25C47 12.8497 37.1503 3 25 3C12.8497 3 3 12.8497 3 25C3 37.1503 12.8497 47 25 47Z" fill="#fde2e1"></path><path d="M25.0006 46.6419C36.9549 46.6419 46.6458 36.951 46.6458 24.9967C46.6458 13.0424 36.9549 3.35156 25.0006 3.35156C13.0463 3.35156 3.35547 13.0424 3.35547 24.9967C3.35547 36.951 13.0463 46.6419 25.0006 46.6419Z" stroke="#EF4136"></path><path d="M27.752 19.44C27.5613 18.6427 27.2147 18.0447 26.712 17.646C26.2093 17.2473 25.5073 17.048 24.606 17.048C23.2367 17.048 22.214 17.5767 21.538 18.634C20.862 19.674 20.5067 21.4073 20.472 23.834C20.9227 23.0713 21.5813 22.482 22.448 22.066C23.3147 21.65 24.2507 21.442 25.256 21.442C26.4 21.442 27.4053 21.6933 28.272 22.196C29.156 22.6813 29.8407 23.392 30.326 24.328C30.8287 25.264 31.08 26.382 31.08 27.682C31.08 28.8953 30.8373 29.9787 30.352 30.932C29.884 31.8853 29.182 32.6393 28.246 33.194C27.31 33.7313 26.1833 34 24.866 34C23.0807 34 21.6767 33.61 20.654 32.83C19.6487 32.0327 18.938 30.9147 18.522 29.476C18.1233 28.0373 17.924 26.2433 17.924 24.094C17.924 17.75 20.16 14.578 24.632 14.578C26.3653 14.578 27.726 15.046 28.714 15.982C29.7193 16.918 30.3087 18.0707 30.482 19.44H27.752ZM24.606 23.938C23.5487 23.938 22.6473 24.2587 21.902 24.9C21.174 25.524 20.81 26.434 20.81 27.63C20.81 28.826 21.148 29.7793 21.824 30.49C22.5173 31.1833 23.4793 31.53 24.71 31.53C25.802 31.53 26.66 31.192 27.284 30.516C27.9253 29.84 28.246 28.9387 28.246 27.812C28.246 26.6333 27.934 25.6973 27.31 25.004C26.7033 24.2933 25.802 23.938 24.606 23.938Z" fill="#EF4136"></path></svg> 