<?xml version="1.0" encoding="UTF-8"?> <svg xmlns="http://www.w3.org/2000/svg" width="50" height="50" viewBox="0 0 50 50" fill="none"><path d="M25 50C38.8071 50 50 38.8071 50 25C50 11.1929 38.8071 0 25 0C11.1929 0 0 11.1929 0 25C0 38.8071 11.1929 50 25 50Z" fill="#fde2e1"></path><path d="M25 47C37.1503 47 47 37.1503 47 25C47 12.8497 37.1503 3 25 3C12.8497 3 3 12.8497 3 25C3 37.1503 12.8497 47 25 47Z" fill="#fde2e1"></path><path d="M25.0006 46.6419C36.9549 46.6419 46.6458 36.951 46.6458 24.9967C46.6458 13.0424 36.9549 3.35156 25.0006 3.35156C13.0463 3.35156 3.35547 13.0424 3.35547 24.9967C3.35547 36.951 13.0463 46.6419 25.0006 46.6419Z" stroke="#EF4136"></path><path d="M20.198 29.97C21.862 28.5313 23.1707 27.3527 24.124 26.434C25.0947 25.498 25.9007 24.5273 26.542 23.522C27.1833 22.5167 27.504 21.5113 27.504 20.506C27.504 19.466 27.2527 18.6513 26.75 18.062C26.2647 17.4727 25.4933 17.178 24.436 17.178C23.4133 17.178 22.616 17.5073 22.044 18.166C21.4893 18.8073 21.1947 19.674 21.16 20.766H18.3C18.352 18.79 18.9413 17.282 20.068 16.242C21.212 15.1847 22.6593 14.656 24.41 14.656C26.2993 14.656 27.7727 15.176 28.83 16.216C29.9047 17.256 30.442 18.6427 30.442 20.376C30.442 21.624 30.1213 22.8287 29.48 23.99C28.856 25.134 28.102 26.1653 27.218 27.084C26.3513 27.9853 25.242 29.034 23.89 30.23L22.72 31.27H30.962V33.74H18.326V31.582L20.198 29.97Z" fill="#EF4136"></path></svg> 